%TF.GenerationSoftware,KiCad,Pcbnew,5.1.8-db9833491~88~ubuntu16.04.1*%
%TF.CreationDate,2021-01-16T20:59:40+01:00*%
%TF.ProjectId,vco,76636f2e-6b69-4636-9164-5f7063625858,rev?*%
%TF.SameCoordinates,Original*%
%TF.FileFunction,Soldermask,Top*%
%TF.FilePolarity,Negative*%
%FSLAX46Y46*%
G04 Gerber Fmt 4.6, Leading zero omitted, Abs format (unit mm)*
G04 Created by KiCad (PCBNEW 5.1.8-db9833491~88~ubuntu16.04.1) date 2021-01-16 20:59:40*
%MOMM*%
%LPD*%
G01*
G04 APERTURE LIST*
%TA.AperFunction,Profile*%
%ADD10C,0.050000*%
%TD*%
%ADD11C,1.727200*%
%ADD12C,1.524000*%
%ADD13R,1.500000X1.500000*%
%ADD14C,1.500000*%
%ADD15O,1.700000X1.700000*%
%ADD16R,1.700000X1.700000*%
%ADD17O,1.740000X2.190000*%
%ADD18O,1.524000X2.844800*%
%ADD19C,1.473200*%
%ADD20O,2.844800X1.524000*%
%ADD21C,1.803400*%
%ADD22C,1.625600*%
G04 APERTURE END LIST*
D10*
X163000000Y-187000000D02*
X19000000Y-187000000D01*
X163000000Y-44000000D02*
X163000000Y-187000000D01*
X19000000Y-44000000D02*
X163000000Y-44000000D01*
X19000000Y-187000000D02*
X19000000Y-44000000D01*
D11*
%TO.C,TP*%
X159300000Y-136400000D03*
%TD*%
%TO.C,Q1*%
G36*
G01*
X47872100Y-71104400D02*
X48672100Y-71104400D01*
G75*
G02*
X48773700Y-71206000I0J-101600D01*
G01*
X48773700Y-71606000D01*
G75*
G02*
X48672100Y-71707600I-101600J0D01*
G01*
X47872100Y-71707600D01*
G75*
G02*
X47770500Y-71606000I0J101600D01*
G01*
X47770500Y-71206000D01*
G75*
G02*
X47872100Y-71104400I101600J0D01*
G01*
G37*
G36*
G01*
X47872100Y-71754400D02*
X48672100Y-71754400D01*
G75*
G02*
X48773700Y-71856000I0J-101600D01*
G01*
X48773700Y-72256000D01*
G75*
G02*
X48672100Y-72357600I-101600J0D01*
G01*
X47872100Y-72357600D01*
G75*
G02*
X47770500Y-72256000I0J101600D01*
G01*
X47770500Y-71856000D01*
G75*
G02*
X47872100Y-71754400I101600J0D01*
G01*
G37*
G36*
G01*
X47872100Y-72404400D02*
X48672100Y-72404400D01*
G75*
G02*
X48773700Y-72506000I0J-101600D01*
G01*
X48773700Y-72906000D01*
G75*
G02*
X48672100Y-73007600I-101600J0D01*
G01*
X47872100Y-73007600D01*
G75*
G02*
X47770500Y-72906000I0J101600D01*
G01*
X47770500Y-72506000D01*
G75*
G02*
X47872100Y-72404400I101600J0D01*
G01*
G37*
G36*
G01*
X46272100Y-72404400D02*
X47072100Y-72404400D01*
G75*
G02*
X47173700Y-72506000I0J-101600D01*
G01*
X47173700Y-72906000D01*
G75*
G02*
X47072100Y-73007600I-101600J0D01*
G01*
X46272100Y-73007600D01*
G75*
G02*
X46170500Y-72906000I0J101600D01*
G01*
X46170500Y-72506000D01*
G75*
G02*
X46272100Y-72404400I101600J0D01*
G01*
G37*
G36*
G01*
X46272100Y-71754400D02*
X47072100Y-71754400D01*
G75*
G02*
X47173700Y-71856000I0J-101600D01*
G01*
X47173700Y-72256000D01*
G75*
G02*
X47072100Y-72357600I-101600J0D01*
G01*
X46272100Y-72357600D01*
G75*
G02*
X46170500Y-72256000I0J101600D01*
G01*
X46170500Y-71856000D01*
G75*
G02*
X46272100Y-71754400I101600J0D01*
G01*
G37*
G36*
G01*
X46272100Y-71104400D02*
X47072100Y-71104400D01*
G75*
G02*
X47173700Y-71206000I0J-101600D01*
G01*
X47173700Y-71606000D01*
G75*
G02*
X47072100Y-71707600I-101600J0D01*
G01*
X46272100Y-71707600D01*
G75*
G02*
X46170500Y-71606000I0J101600D01*
G01*
X46170500Y-71206000D01*
G75*
G02*
X46272100Y-71104400I101600J0D01*
G01*
G37*
%TD*%
%TO.C,Q3*%
G36*
G01*
X79649505Y-71116299D02*
X80449505Y-71116299D01*
G75*
G02*
X80551105Y-71217899I0J-101600D01*
G01*
X80551105Y-71617899D01*
G75*
G02*
X80449505Y-71719499I-101600J0D01*
G01*
X79649505Y-71719499D01*
G75*
G02*
X79547905Y-71617899I0J101600D01*
G01*
X79547905Y-71217899D01*
G75*
G02*
X79649505Y-71116299I101600J0D01*
G01*
G37*
G36*
G01*
X79649505Y-71766299D02*
X80449505Y-71766299D01*
G75*
G02*
X80551105Y-71867899I0J-101600D01*
G01*
X80551105Y-72267899D01*
G75*
G02*
X80449505Y-72369499I-101600J0D01*
G01*
X79649505Y-72369499D01*
G75*
G02*
X79547905Y-72267899I0J101600D01*
G01*
X79547905Y-71867899D01*
G75*
G02*
X79649505Y-71766299I101600J0D01*
G01*
G37*
G36*
G01*
X79649505Y-72416299D02*
X80449505Y-72416299D01*
G75*
G02*
X80551105Y-72517899I0J-101600D01*
G01*
X80551105Y-72917899D01*
G75*
G02*
X80449505Y-73019499I-101600J0D01*
G01*
X79649505Y-73019499D01*
G75*
G02*
X79547905Y-72917899I0J101600D01*
G01*
X79547905Y-72517899D01*
G75*
G02*
X79649505Y-72416299I101600J0D01*
G01*
G37*
G36*
G01*
X78049505Y-72416299D02*
X78849505Y-72416299D01*
G75*
G02*
X78951105Y-72517899I0J-101600D01*
G01*
X78951105Y-72917899D01*
G75*
G02*
X78849505Y-73019499I-101600J0D01*
G01*
X78049505Y-73019499D01*
G75*
G02*
X77947905Y-72917899I0J101600D01*
G01*
X77947905Y-72517899D01*
G75*
G02*
X78049505Y-72416299I101600J0D01*
G01*
G37*
G36*
G01*
X78049505Y-71766299D02*
X78849505Y-71766299D01*
G75*
G02*
X78951105Y-71867899I0J-101600D01*
G01*
X78951105Y-72267899D01*
G75*
G02*
X78849505Y-72369499I-101600J0D01*
G01*
X78049505Y-72369499D01*
G75*
G02*
X77947905Y-72267899I0J101600D01*
G01*
X77947905Y-71867899D01*
G75*
G02*
X78049505Y-71766299I101600J0D01*
G01*
G37*
G36*
G01*
X78049505Y-71116299D02*
X78849505Y-71116299D01*
G75*
G02*
X78951105Y-71217899I0J-101600D01*
G01*
X78951105Y-71617899D01*
G75*
G02*
X78849505Y-71719499I-101600J0D01*
G01*
X78049505Y-71719499D01*
G75*
G02*
X77947905Y-71617899I0J101600D01*
G01*
X77947905Y-71217899D01*
G75*
G02*
X78049505Y-71116299I101600J0D01*
G01*
G37*
%TD*%
%TO.C,Q5*%
G36*
G01*
X111383170Y-71105477D02*
X112183170Y-71105477D01*
G75*
G02*
X112284770Y-71207077I0J-101600D01*
G01*
X112284770Y-71607077D01*
G75*
G02*
X112183170Y-71708677I-101600J0D01*
G01*
X111383170Y-71708677D01*
G75*
G02*
X111281570Y-71607077I0J101600D01*
G01*
X111281570Y-71207077D01*
G75*
G02*
X111383170Y-71105477I101600J0D01*
G01*
G37*
G36*
G01*
X111383170Y-71755477D02*
X112183170Y-71755477D01*
G75*
G02*
X112284770Y-71857077I0J-101600D01*
G01*
X112284770Y-72257077D01*
G75*
G02*
X112183170Y-72358677I-101600J0D01*
G01*
X111383170Y-72358677D01*
G75*
G02*
X111281570Y-72257077I0J101600D01*
G01*
X111281570Y-71857077D01*
G75*
G02*
X111383170Y-71755477I101600J0D01*
G01*
G37*
G36*
G01*
X111383170Y-72405477D02*
X112183170Y-72405477D01*
G75*
G02*
X112284770Y-72507077I0J-101600D01*
G01*
X112284770Y-72907077D01*
G75*
G02*
X112183170Y-73008677I-101600J0D01*
G01*
X111383170Y-73008677D01*
G75*
G02*
X111281570Y-72907077I0J101600D01*
G01*
X111281570Y-72507077D01*
G75*
G02*
X111383170Y-72405477I101600J0D01*
G01*
G37*
G36*
G01*
X109783170Y-72405477D02*
X110583170Y-72405477D01*
G75*
G02*
X110684770Y-72507077I0J-101600D01*
G01*
X110684770Y-72907077D01*
G75*
G02*
X110583170Y-73008677I-101600J0D01*
G01*
X109783170Y-73008677D01*
G75*
G02*
X109681570Y-72907077I0J101600D01*
G01*
X109681570Y-72507077D01*
G75*
G02*
X109783170Y-72405477I101600J0D01*
G01*
G37*
G36*
G01*
X109783170Y-71755477D02*
X110583170Y-71755477D01*
G75*
G02*
X110684770Y-71857077I0J-101600D01*
G01*
X110684770Y-72257077D01*
G75*
G02*
X110583170Y-72358677I-101600J0D01*
G01*
X109783170Y-72358677D01*
G75*
G02*
X109681570Y-72257077I0J101600D01*
G01*
X109681570Y-71857077D01*
G75*
G02*
X109783170Y-71755477I101600J0D01*
G01*
G37*
G36*
G01*
X109783170Y-71105477D02*
X110583170Y-71105477D01*
G75*
G02*
X110684770Y-71207077I0J-101600D01*
G01*
X110684770Y-71607077D01*
G75*
G02*
X110583170Y-71708677I-101600J0D01*
G01*
X109783170Y-71708677D01*
G75*
G02*
X109681570Y-71607077I0J101600D01*
G01*
X109681570Y-71207077D01*
G75*
G02*
X109783170Y-71105477I101600J0D01*
G01*
G37*
%TD*%
%TO.C,Q7*%
G36*
G01*
X143248565Y-71092170D02*
X144048565Y-71092170D01*
G75*
G02*
X144150165Y-71193770I0J-101600D01*
G01*
X144150165Y-71593770D01*
G75*
G02*
X144048565Y-71695370I-101600J0D01*
G01*
X143248565Y-71695370D01*
G75*
G02*
X143146965Y-71593770I0J101600D01*
G01*
X143146965Y-71193770D01*
G75*
G02*
X143248565Y-71092170I101600J0D01*
G01*
G37*
G36*
G01*
X143248565Y-71742170D02*
X144048565Y-71742170D01*
G75*
G02*
X144150165Y-71843770I0J-101600D01*
G01*
X144150165Y-72243770D01*
G75*
G02*
X144048565Y-72345370I-101600J0D01*
G01*
X143248565Y-72345370D01*
G75*
G02*
X143146965Y-72243770I0J101600D01*
G01*
X143146965Y-71843770D01*
G75*
G02*
X143248565Y-71742170I101600J0D01*
G01*
G37*
G36*
G01*
X143248565Y-72392170D02*
X144048565Y-72392170D01*
G75*
G02*
X144150165Y-72493770I0J-101600D01*
G01*
X144150165Y-72893770D01*
G75*
G02*
X144048565Y-72995370I-101600J0D01*
G01*
X143248565Y-72995370D01*
G75*
G02*
X143146965Y-72893770I0J101600D01*
G01*
X143146965Y-72493770D01*
G75*
G02*
X143248565Y-72392170I101600J0D01*
G01*
G37*
G36*
G01*
X141648565Y-72392170D02*
X142448565Y-72392170D01*
G75*
G02*
X142550165Y-72493770I0J-101600D01*
G01*
X142550165Y-72893770D01*
G75*
G02*
X142448565Y-72995370I-101600J0D01*
G01*
X141648565Y-72995370D01*
G75*
G02*
X141546965Y-72893770I0J101600D01*
G01*
X141546965Y-72493770D01*
G75*
G02*
X141648565Y-72392170I101600J0D01*
G01*
G37*
G36*
G01*
X141648565Y-71742170D02*
X142448565Y-71742170D01*
G75*
G02*
X142550165Y-71843770I0J-101600D01*
G01*
X142550165Y-72243770D01*
G75*
G02*
X142448565Y-72345370I-101600J0D01*
G01*
X141648565Y-72345370D01*
G75*
G02*
X141546965Y-72243770I0J101600D01*
G01*
X141546965Y-71843770D01*
G75*
G02*
X141648565Y-71742170I101600J0D01*
G01*
G37*
G36*
G01*
X141648565Y-71092170D02*
X142448565Y-71092170D01*
G75*
G02*
X142550165Y-71193770I0J-101600D01*
G01*
X142550165Y-71593770D01*
G75*
G02*
X142448565Y-71695370I-101600J0D01*
G01*
X141648565Y-71695370D01*
G75*
G02*
X141546965Y-71593770I0J101600D01*
G01*
X141546965Y-71193770D01*
G75*
G02*
X141648565Y-71092170I101600J0D01*
G01*
G37*
%TD*%
%TO.C,Q9*%
G36*
G01*
X28995999Y-160253000D02*
X28195999Y-160253000D01*
G75*
G02*
X28094399Y-160151400I0J101600D01*
G01*
X28094399Y-159751400D01*
G75*
G02*
X28195999Y-159649800I101600J0D01*
G01*
X28995999Y-159649800D01*
G75*
G02*
X29097599Y-159751400I0J-101600D01*
G01*
X29097599Y-160151400D01*
G75*
G02*
X28995999Y-160253000I-101600J0D01*
G01*
G37*
G36*
G01*
X28995999Y-159603000D02*
X28195999Y-159603000D01*
G75*
G02*
X28094399Y-159501400I0J101600D01*
G01*
X28094399Y-159101400D01*
G75*
G02*
X28195999Y-158999800I101600J0D01*
G01*
X28995999Y-158999800D01*
G75*
G02*
X29097599Y-159101400I0J-101600D01*
G01*
X29097599Y-159501400D01*
G75*
G02*
X28995999Y-159603000I-101600J0D01*
G01*
G37*
G36*
G01*
X28995999Y-158953000D02*
X28195999Y-158953000D01*
G75*
G02*
X28094399Y-158851400I0J101600D01*
G01*
X28094399Y-158451400D01*
G75*
G02*
X28195999Y-158349800I101600J0D01*
G01*
X28995999Y-158349800D01*
G75*
G02*
X29097599Y-158451400I0J-101600D01*
G01*
X29097599Y-158851400D01*
G75*
G02*
X28995999Y-158953000I-101600J0D01*
G01*
G37*
G36*
G01*
X30595999Y-158953000D02*
X29795999Y-158953000D01*
G75*
G02*
X29694399Y-158851400I0J101600D01*
G01*
X29694399Y-158451400D01*
G75*
G02*
X29795999Y-158349800I101600J0D01*
G01*
X30595999Y-158349800D01*
G75*
G02*
X30697599Y-158451400I0J-101600D01*
G01*
X30697599Y-158851400D01*
G75*
G02*
X30595999Y-158953000I-101600J0D01*
G01*
G37*
G36*
G01*
X30595999Y-159603000D02*
X29795999Y-159603000D01*
G75*
G02*
X29694399Y-159501400I0J101600D01*
G01*
X29694399Y-159101400D01*
G75*
G02*
X29795999Y-158999800I101600J0D01*
G01*
X30595999Y-158999800D01*
G75*
G02*
X30697599Y-159101400I0J-101600D01*
G01*
X30697599Y-159501400D01*
G75*
G02*
X30595999Y-159603000I-101600J0D01*
G01*
G37*
G36*
G01*
X30595999Y-160253000D02*
X29795999Y-160253000D01*
G75*
G02*
X29694399Y-160151400I0J101600D01*
G01*
X29694399Y-159751400D01*
G75*
G02*
X29795999Y-159649800I101600J0D01*
G01*
X30595999Y-159649800D01*
G75*
G02*
X30697599Y-159751400I0J-101600D01*
G01*
X30697599Y-160151400D01*
G75*
G02*
X30595999Y-160253000I-101600J0D01*
G01*
G37*
%TD*%
%TO.C,Q11*%
G36*
G01*
X60635999Y-160273000D02*
X59835999Y-160273000D01*
G75*
G02*
X59734399Y-160171400I0J101600D01*
G01*
X59734399Y-159771400D01*
G75*
G02*
X59835999Y-159669800I101600J0D01*
G01*
X60635999Y-159669800D01*
G75*
G02*
X60737599Y-159771400I0J-101600D01*
G01*
X60737599Y-160171400D01*
G75*
G02*
X60635999Y-160273000I-101600J0D01*
G01*
G37*
G36*
G01*
X60635999Y-159623000D02*
X59835999Y-159623000D01*
G75*
G02*
X59734399Y-159521400I0J101600D01*
G01*
X59734399Y-159121400D01*
G75*
G02*
X59835999Y-159019800I101600J0D01*
G01*
X60635999Y-159019800D01*
G75*
G02*
X60737599Y-159121400I0J-101600D01*
G01*
X60737599Y-159521400D01*
G75*
G02*
X60635999Y-159623000I-101600J0D01*
G01*
G37*
G36*
G01*
X60635999Y-158973000D02*
X59835999Y-158973000D01*
G75*
G02*
X59734399Y-158871400I0J101600D01*
G01*
X59734399Y-158471400D01*
G75*
G02*
X59835999Y-158369800I101600J0D01*
G01*
X60635999Y-158369800D01*
G75*
G02*
X60737599Y-158471400I0J-101600D01*
G01*
X60737599Y-158871400D01*
G75*
G02*
X60635999Y-158973000I-101600J0D01*
G01*
G37*
G36*
G01*
X62235999Y-158973000D02*
X61435999Y-158973000D01*
G75*
G02*
X61334399Y-158871400I0J101600D01*
G01*
X61334399Y-158471400D01*
G75*
G02*
X61435999Y-158369800I101600J0D01*
G01*
X62235999Y-158369800D01*
G75*
G02*
X62337599Y-158471400I0J-101600D01*
G01*
X62337599Y-158871400D01*
G75*
G02*
X62235999Y-158973000I-101600J0D01*
G01*
G37*
G36*
G01*
X62235999Y-159623000D02*
X61435999Y-159623000D01*
G75*
G02*
X61334399Y-159521400I0J101600D01*
G01*
X61334399Y-159121400D01*
G75*
G02*
X61435999Y-159019800I101600J0D01*
G01*
X62235999Y-159019800D01*
G75*
G02*
X62337599Y-159121400I0J-101600D01*
G01*
X62337599Y-159521400D01*
G75*
G02*
X62235999Y-159623000I-101600J0D01*
G01*
G37*
G36*
G01*
X62235999Y-160273000D02*
X61435999Y-160273000D01*
G75*
G02*
X61334399Y-160171400I0J101600D01*
G01*
X61334399Y-159771400D01*
G75*
G02*
X61435999Y-159669800I101600J0D01*
G01*
X62235999Y-159669800D01*
G75*
G02*
X62337599Y-159771400I0J-101600D01*
G01*
X62337599Y-160171400D01*
G75*
G02*
X62235999Y-160273000I-101600J0D01*
G01*
G37*
%TD*%
%TO.C,Q13*%
G36*
G01*
X92295999Y-160273000D02*
X91495999Y-160273000D01*
G75*
G02*
X91394399Y-160171400I0J101600D01*
G01*
X91394399Y-159771400D01*
G75*
G02*
X91495999Y-159669800I101600J0D01*
G01*
X92295999Y-159669800D01*
G75*
G02*
X92397599Y-159771400I0J-101600D01*
G01*
X92397599Y-160171400D01*
G75*
G02*
X92295999Y-160273000I-101600J0D01*
G01*
G37*
G36*
G01*
X92295999Y-159623000D02*
X91495999Y-159623000D01*
G75*
G02*
X91394399Y-159521400I0J101600D01*
G01*
X91394399Y-159121400D01*
G75*
G02*
X91495999Y-159019800I101600J0D01*
G01*
X92295999Y-159019800D01*
G75*
G02*
X92397599Y-159121400I0J-101600D01*
G01*
X92397599Y-159521400D01*
G75*
G02*
X92295999Y-159623000I-101600J0D01*
G01*
G37*
G36*
G01*
X92295999Y-158973000D02*
X91495999Y-158973000D01*
G75*
G02*
X91394399Y-158871400I0J101600D01*
G01*
X91394399Y-158471400D01*
G75*
G02*
X91495999Y-158369800I101600J0D01*
G01*
X92295999Y-158369800D01*
G75*
G02*
X92397599Y-158471400I0J-101600D01*
G01*
X92397599Y-158871400D01*
G75*
G02*
X92295999Y-158973000I-101600J0D01*
G01*
G37*
G36*
G01*
X93895999Y-158973000D02*
X93095999Y-158973000D01*
G75*
G02*
X92994399Y-158871400I0J101600D01*
G01*
X92994399Y-158471400D01*
G75*
G02*
X93095999Y-158369800I101600J0D01*
G01*
X93895999Y-158369800D01*
G75*
G02*
X93997599Y-158471400I0J-101600D01*
G01*
X93997599Y-158871400D01*
G75*
G02*
X93895999Y-158973000I-101600J0D01*
G01*
G37*
G36*
G01*
X93895999Y-159623000D02*
X93095999Y-159623000D01*
G75*
G02*
X92994399Y-159521400I0J101600D01*
G01*
X92994399Y-159121400D01*
G75*
G02*
X93095999Y-159019800I101600J0D01*
G01*
X93895999Y-159019800D01*
G75*
G02*
X93997599Y-159121400I0J-101600D01*
G01*
X93997599Y-159521400D01*
G75*
G02*
X93895999Y-159623000I-101600J0D01*
G01*
G37*
G36*
G01*
X93895999Y-160273000D02*
X93095999Y-160273000D01*
G75*
G02*
X92994399Y-160171400I0J101600D01*
G01*
X92994399Y-159771400D01*
G75*
G02*
X93095999Y-159669800I101600J0D01*
G01*
X93895999Y-159669800D01*
G75*
G02*
X93997599Y-159771400I0J-101600D01*
G01*
X93997599Y-160171400D01*
G75*
G02*
X93895999Y-160273000I-101600J0D01*
G01*
G37*
%TD*%
%TO.C,Q15*%
G36*
G01*
X123935999Y-160293000D02*
X123135999Y-160293000D01*
G75*
G02*
X123034399Y-160191400I0J101600D01*
G01*
X123034399Y-159791400D01*
G75*
G02*
X123135999Y-159689800I101600J0D01*
G01*
X123935999Y-159689800D01*
G75*
G02*
X124037599Y-159791400I0J-101600D01*
G01*
X124037599Y-160191400D01*
G75*
G02*
X123935999Y-160293000I-101600J0D01*
G01*
G37*
G36*
G01*
X123935999Y-159643000D02*
X123135999Y-159643000D01*
G75*
G02*
X123034399Y-159541400I0J101600D01*
G01*
X123034399Y-159141400D01*
G75*
G02*
X123135999Y-159039800I101600J0D01*
G01*
X123935999Y-159039800D01*
G75*
G02*
X124037599Y-159141400I0J-101600D01*
G01*
X124037599Y-159541400D01*
G75*
G02*
X123935999Y-159643000I-101600J0D01*
G01*
G37*
G36*
G01*
X123935999Y-158993000D02*
X123135999Y-158993000D01*
G75*
G02*
X123034399Y-158891400I0J101600D01*
G01*
X123034399Y-158491400D01*
G75*
G02*
X123135999Y-158389800I101600J0D01*
G01*
X123935999Y-158389800D01*
G75*
G02*
X124037599Y-158491400I0J-101600D01*
G01*
X124037599Y-158891400D01*
G75*
G02*
X123935999Y-158993000I-101600J0D01*
G01*
G37*
G36*
G01*
X125535999Y-158993000D02*
X124735999Y-158993000D01*
G75*
G02*
X124634399Y-158891400I0J101600D01*
G01*
X124634399Y-158491400D01*
G75*
G02*
X124735999Y-158389800I101600J0D01*
G01*
X125535999Y-158389800D01*
G75*
G02*
X125637599Y-158491400I0J-101600D01*
G01*
X125637599Y-158891400D01*
G75*
G02*
X125535999Y-158993000I-101600J0D01*
G01*
G37*
G36*
G01*
X125535999Y-159643000D02*
X124735999Y-159643000D01*
G75*
G02*
X124634399Y-159541400I0J101600D01*
G01*
X124634399Y-159141400D01*
G75*
G02*
X124735999Y-159039800I101600J0D01*
G01*
X125535999Y-159039800D01*
G75*
G02*
X125637599Y-159141400I0J-101600D01*
G01*
X125637599Y-159541400D01*
G75*
G02*
X125535999Y-159643000I-101600J0D01*
G01*
G37*
G36*
G01*
X125535999Y-160293000D02*
X124735999Y-160293000D01*
G75*
G02*
X124634399Y-160191400I0J101600D01*
G01*
X124634399Y-159791400D01*
G75*
G02*
X124735999Y-159689800I101600J0D01*
G01*
X125535999Y-159689800D01*
G75*
G02*
X125637599Y-159791400I0J-101600D01*
G01*
X125637599Y-160191400D01*
G75*
G02*
X125535999Y-160293000I-101600J0D01*
G01*
G37*
%TD*%
D12*
%TO.C,SCALE1*%
X34533300Y-65024400D03*
X31993300Y-65024400D03*
X34533300Y-62484400D03*
X34533300Y-67564400D03*
%TD*%
%TO.C,OFFSET1*%
X26493300Y-64994400D03*
X29033300Y-64994400D03*
X26493300Y-67534400D03*
X26493300Y-62454400D03*
%TD*%
%TO.C,TRIM_5V1*%
X154230000Y-160400000D03*
X156770000Y-160400000D03*
X154230000Y-162940000D03*
X154230000Y-157860000D03*
%TD*%
D13*
%TO.C,U1*%
X153900000Y-146200000D03*
D14*
X158980000Y-146200000D03*
X156440000Y-146200000D03*
%TD*%
D15*
%TO.C,5V_ALT*%
X153300000Y-135740000D03*
D16*
X153300000Y-133200000D03*
%TD*%
D12*
%TO.C,R197*%
X152590000Y-152100000D03*
X160210000Y-152100000D03*
%TD*%
%TO.C,R196*%
X160110000Y-140200000D03*
X152490000Y-140200000D03*
%TD*%
%TO.C,C16*%
X77220705Y-104796299D03*
X82300705Y-104796299D03*
%TD*%
D17*
%TO.C,PW_IN1*%
X50920000Y-50400000D03*
X48380000Y-50400000D03*
X45840000Y-50400000D03*
G36*
G01*
X42430000Y-51245001D02*
X42430000Y-49554999D01*
G75*
G02*
X42679999Y-49305000I249999J0D01*
G01*
X43920001Y-49305000D01*
G75*
G02*
X44170000Y-49554999I0J-249999D01*
G01*
X44170000Y-51245001D01*
G75*
G02*
X43920001Y-51495000I-249999J0D01*
G01*
X42679999Y-51495000D01*
G75*
G02*
X42430000Y-51245001I0J249999D01*
G01*
G37*
%TD*%
%TO.C,PW_IN8*%
X120888099Y-180997400D03*
X123428099Y-180997400D03*
X125968099Y-180997400D03*
G36*
G01*
X129378099Y-180152399D02*
X129378099Y-181842401D01*
G75*
G02*
X129128100Y-182092400I-249999J0D01*
G01*
X127888098Y-182092400D01*
G75*
G02*
X127638099Y-181842401I0J249999D01*
G01*
X127638099Y-180152399D01*
G75*
G02*
X127888098Y-179902400I249999J0D01*
G01*
X129128100Y-179902400D01*
G75*
G02*
X129378099Y-180152399I0J-249999D01*
G01*
G37*
%TD*%
%TO.C,PW_IN7*%
X89248099Y-180977400D03*
X91788099Y-180977400D03*
X94328099Y-180977400D03*
G36*
G01*
X97738099Y-180132399D02*
X97738099Y-181822401D01*
G75*
G02*
X97488100Y-182072400I-249999J0D01*
G01*
X96248098Y-182072400D01*
G75*
G02*
X95998099Y-181822401I0J249999D01*
G01*
X95998099Y-180132399D01*
G75*
G02*
X96248098Y-179882400I249999J0D01*
G01*
X97488100Y-179882400D01*
G75*
G02*
X97738099Y-180132399I0J-249999D01*
G01*
G37*
%TD*%
%TO.C,PW_IN6*%
X57588099Y-180977400D03*
X60128099Y-180977400D03*
X62668099Y-180977400D03*
G36*
G01*
X66078099Y-180132399D02*
X66078099Y-181822401D01*
G75*
G02*
X65828100Y-182072400I-249999J0D01*
G01*
X64588098Y-182072400D01*
G75*
G02*
X64338099Y-181822401I0J249999D01*
G01*
X64338099Y-180132399D01*
G75*
G02*
X64588098Y-179882400I249999J0D01*
G01*
X65828100Y-179882400D01*
G75*
G02*
X66078099Y-180132399I0J-249999D01*
G01*
G37*
%TD*%
%TO.C,PW_IN5*%
X25948099Y-180957400D03*
X28488099Y-180957400D03*
X31028099Y-180957400D03*
G36*
G01*
X34438099Y-180112399D02*
X34438099Y-181802401D01*
G75*
G02*
X34188100Y-182052400I-249999J0D01*
G01*
X32948098Y-182052400D01*
G75*
G02*
X32698099Y-181802401I0J249999D01*
G01*
X32698099Y-180112399D01*
G75*
G02*
X32948098Y-179862400I249999J0D01*
G01*
X34188100Y-179862400D01*
G75*
G02*
X34438099Y-180112399I0J-249999D01*
G01*
G37*
%TD*%
%TO.C,PW_IN3*%
X146296465Y-50387770D03*
X143756465Y-50387770D03*
X141216465Y-50387770D03*
G36*
G01*
X137806465Y-51232771D02*
X137806465Y-49542769D01*
G75*
G02*
X138056464Y-49292770I249999J0D01*
G01*
X139296466Y-49292770D01*
G75*
G02*
X139546465Y-49542769I0J-249999D01*
G01*
X139546465Y-51232771D01*
G75*
G02*
X139296466Y-51482770I-249999J0D01*
G01*
X138056464Y-51482770D01*
G75*
G02*
X137806465Y-51232771I0J249999D01*
G01*
G37*
%TD*%
%TO.C,PW_IN4*%
X114431070Y-50401077D03*
X111891070Y-50401077D03*
X109351070Y-50401077D03*
G36*
G01*
X105941070Y-51246078D02*
X105941070Y-49556076D01*
G75*
G02*
X106191069Y-49306077I249999J0D01*
G01*
X107431071Y-49306077D01*
G75*
G02*
X107681070Y-49556076I0J-249999D01*
G01*
X107681070Y-51246078D01*
G75*
G02*
X107431071Y-51496077I-249999J0D01*
G01*
X106191069Y-51496077D01*
G75*
G02*
X105941070Y-51246078I0J249999D01*
G01*
G37*
%TD*%
%TO.C,PW_IN2*%
X82697405Y-50411899D03*
X80157405Y-50411899D03*
X77617405Y-50411899D03*
G36*
G01*
X74207405Y-51256900D02*
X74207405Y-49566898D01*
G75*
G02*
X74457404Y-49316899I249999J0D01*
G01*
X75697406Y-49316899D01*
G75*
G02*
X75947405Y-49566898I0J-249999D01*
G01*
X75947405Y-51256900D01*
G75*
G02*
X75697406Y-51506899I-249999J0D01*
G01*
X74457404Y-51506899D01*
G75*
G02*
X74207405Y-51256900I0J249999D01*
G01*
G37*
%TD*%
%TO.C,CV_IN1*%
X36260000Y-50400000D03*
X33720000Y-50400000D03*
X31180000Y-50400000D03*
X28640000Y-50400000D03*
G36*
G01*
X25230000Y-51245001D02*
X25230000Y-49554999D01*
G75*
G02*
X25479999Y-49305000I249999J0D01*
G01*
X26720001Y-49305000D01*
G75*
G02*
X26970000Y-49554999I0J-249999D01*
G01*
X26970000Y-51245001D01*
G75*
G02*
X26720001Y-51495000I-249999J0D01*
G01*
X25479999Y-51495000D01*
G75*
G02*
X25230000Y-51245001I0J249999D01*
G01*
G37*
%TD*%
%TO.C,CV_IN8*%
X135548099Y-180997400D03*
X138088099Y-180997400D03*
X140628099Y-180997400D03*
X143168099Y-180997400D03*
G36*
G01*
X146578099Y-180152399D02*
X146578099Y-181842401D01*
G75*
G02*
X146328100Y-182092400I-249999J0D01*
G01*
X145088098Y-182092400D01*
G75*
G02*
X144838099Y-181842401I0J249999D01*
G01*
X144838099Y-180152399D01*
G75*
G02*
X145088098Y-179902400I249999J0D01*
G01*
X146328100Y-179902400D01*
G75*
G02*
X146578099Y-180152399I0J-249999D01*
G01*
G37*
%TD*%
%TO.C,CV_IN7*%
X103908099Y-180977400D03*
X106448099Y-180977400D03*
X108988099Y-180977400D03*
X111528099Y-180977400D03*
G36*
G01*
X114938099Y-180132399D02*
X114938099Y-181822401D01*
G75*
G02*
X114688100Y-182072400I-249999J0D01*
G01*
X113448098Y-182072400D01*
G75*
G02*
X113198099Y-181822401I0J249999D01*
G01*
X113198099Y-180132399D01*
G75*
G02*
X113448098Y-179882400I249999J0D01*
G01*
X114688100Y-179882400D01*
G75*
G02*
X114938099Y-180132399I0J-249999D01*
G01*
G37*
%TD*%
%TO.C,CV_IN6*%
X72248099Y-180977400D03*
X74788099Y-180977400D03*
X77328099Y-180977400D03*
X79868099Y-180977400D03*
G36*
G01*
X83278099Y-180132399D02*
X83278099Y-181822401D01*
G75*
G02*
X83028100Y-182072400I-249999J0D01*
G01*
X81788098Y-182072400D01*
G75*
G02*
X81538099Y-181822401I0J249999D01*
G01*
X81538099Y-180132399D01*
G75*
G02*
X81788098Y-179882400I249999J0D01*
G01*
X83028100Y-179882400D01*
G75*
G02*
X83278099Y-180132399I0J-249999D01*
G01*
G37*
%TD*%
%TO.C,CV_IN5*%
X40608099Y-180957400D03*
X43148099Y-180957400D03*
X45688099Y-180957400D03*
X48228099Y-180957400D03*
G36*
G01*
X51638099Y-180112399D02*
X51638099Y-181802401D01*
G75*
G02*
X51388100Y-182052400I-249999J0D01*
G01*
X50148098Y-182052400D01*
G75*
G02*
X49898099Y-181802401I0J249999D01*
G01*
X49898099Y-180112399D01*
G75*
G02*
X50148098Y-179862400I249999J0D01*
G01*
X51388100Y-179862400D01*
G75*
G02*
X51638099Y-180112399I0J-249999D01*
G01*
G37*
%TD*%
%TO.C,CV_IN4*%
X131636465Y-50387770D03*
X129096465Y-50387770D03*
X126556465Y-50387770D03*
X124016465Y-50387770D03*
G36*
G01*
X120606465Y-51232771D02*
X120606465Y-49542769D01*
G75*
G02*
X120856464Y-49292770I249999J0D01*
G01*
X122096466Y-49292770D01*
G75*
G02*
X122346465Y-49542769I0J-249999D01*
G01*
X122346465Y-51232771D01*
G75*
G02*
X122096466Y-51482770I-249999J0D01*
G01*
X120856464Y-51482770D01*
G75*
G02*
X120606465Y-51232771I0J249999D01*
G01*
G37*
%TD*%
%TO.C,CV_IN3*%
X99771070Y-50401077D03*
X97231070Y-50401077D03*
X94691070Y-50401077D03*
X92151070Y-50401077D03*
G36*
G01*
X88741070Y-51246078D02*
X88741070Y-49556076D01*
G75*
G02*
X88991069Y-49306077I249999J0D01*
G01*
X90231071Y-49306077D01*
G75*
G02*
X90481070Y-49556076I0J-249999D01*
G01*
X90481070Y-51246078D01*
G75*
G02*
X90231071Y-51496077I-249999J0D01*
G01*
X88991069Y-51496077D01*
G75*
G02*
X88741070Y-51246078I0J249999D01*
G01*
G37*
%TD*%
%TO.C,CV_IN2*%
X68037405Y-50411899D03*
X65497405Y-50411899D03*
X62957405Y-50411899D03*
X60417405Y-50411899D03*
G36*
G01*
X57007405Y-51256900D02*
X57007405Y-49566898D01*
G75*
G02*
X57257404Y-49316899I249999J0D01*
G01*
X58497406Y-49316899D01*
G75*
G02*
X58747405Y-49566898I0J-249999D01*
G01*
X58747405Y-51256900D01*
G75*
G02*
X58497406Y-51506899I-249999J0D01*
G01*
X57257404Y-51506899D01*
G75*
G02*
X57007405Y-51256900I0J249999D01*
G01*
G37*
%TD*%
D12*
%TO.C,C22*%
X114019970Y-83485877D03*
X108939970Y-83485877D03*
%TD*%
%TO.C,C21*%
X96384370Y-87785477D03*
X91304370Y-87785477D03*
%TD*%
D17*
%TO.C,OUT1*%
X40580000Y-111500000D03*
X38040000Y-111500000D03*
G36*
G01*
X34630000Y-112345001D02*
X34630000Y-110654999D01*
G75*
G02*
X34879999Y-110405000I249999J0D01*
G01*
X36120001Y-110405000D01*
G75*
G02*
X36370000Y-110654999I0J-249999D01*
G01*
X36370000Y-112345001D01*
G75*
G02*
X36120001Y-112595000I-249999J0D01*
G01*
X34879999Y-112595000D01*
G75*
G02*
X34630000Y-112345001I0J249999D01*
G01*
G37*
%TD*%
%TO.C,OUT8*%
X131228099Y-119897400D03*
X133768099Y-119897400D03*
G36*
G01*
X137178099Y-119052399D02*
X137178099Y-120742401D01*
G75*
G02*
X136928100Y-120992400I-249999J0D01*
G01*
X135688098Y-120992400D01*
G75*
G02*
X135438099Y-120742401I0J249999D01*
G01*
X135438099Y-119052399D01*
G75*
G02*
X135688098Y-118802400I249999J0D01*
G01*
X136928100Y-118802400D01*
G75*
G02*
X137178099Y-119052399I0J-249999D01*
G01*
G37*
%TD*%
%TO.C,OUT7*%
X99588099Y-119877400D03*
X102128099Y-119877400D03*
G36*
G01*
X105538099Y-119032399D02*
X105538099Y-120722401D01*
G75*
G02*
X105288100Y-120972400I-249999J0D01*
G01*
X104048098Y-120972400D01*
G75*
G02*
X103798099Y-120722401I0J249999D01*
G01*
X103798099Y-119032399D01*
G75*
G02*
X104048098Y-118782400I249999J0D01*
G01*
X105288100Y-118782400D01*
G75*
G02*
X105538099Y-119032399I0J-249999D01*
G01*
G37*
%TD*%
%TO.C,OUT6*%
X67928099Y-119877400D03*
X70468099Y-119877400D03*
G36*
G01*
X73878099Y-119032399D02*
X73878099Y-120722401D01*
G75*
G02*
X73628100Y-120972400I-249999J0D01*
G01*
X72388098Y-120972400D01*
G75*
G02*
X72138099Y-120722401I0J249999D01*
G01*
X72138099Y-119032399D01*
G75*
G02*
X72388098Y-118782400I249999J0D01*
G01*
X73628100Y-118782400D01*
G75*
G02*
X73878099Y-119032399I0J-249999D01*
G01*
G37*
%TD*%
%TO.C,OUT5*%
X36288099Y-119857400D03*
X38828099Y-119857400D03*
G36*
G01*
X42238099Y-119012399D02*
X42238099Y-120702401D01*
G75*
G02*
X41988100Y-120952400I-249999J0D01*
G01*
X40748098Y-120952400D01*
G75*
G02*
X40498099Y-120702401I0J249999D01*
G01*
X40498099Y-119012399D01*
G75*
G02*
X40748098Y-118762400I249999J0D01*
G01*
X41988100Y-118762400D01*
G75*
G02*
X42238099Y-119012399I0J-249999D01*
G01*
G37*
%TD*%
%TO.C,OUT4*%
X135956465Y-111487770D03*
X133416465Y-111487770D03*
G36*
G01*
X130006465Y-112332771D02*
X130006465Y-110642769D01*
G75*
G02*
X130256464Y-110392770I249999J0D01*
G01*
X131496466Y-110392770D01*
G75*
G02*
X131746465Y-110642769I0J-249999D01*
G01*
X131746465Y-112332771D01*
G75*
G02*
X131496466Y-112582770I-249999J0D01*
G01*
X130256464Y-112582770D01*
G75*
G02*
X130006465Y-112332771I0J249999D01*
G01*
G37*
%TD*%
%TO.C,OUT3*%
X104091070Y-111501077D03*
X101551070Y-111501077D03*
G36*
G01*
X98141070Y-112346078D02*
X98141070Y-110656076D01*
G75*
G02*
X98391069Y-110406077I249999J0D01*
G01*
X99631071Y-110406077D01*
G75*
G02*
X99881070Y-110656076I0J-249999D01*
G01*
X99881070Y-112346078D01*
G75*
G02*
X99631071Y-112596077I-249999J0D01*
G01*
X98391069Y-112596077D01*
G75*
G02*
X98141070Y-112346078I0J249999D01*
G01*
G37*
%TD*%
%TO.C,OUT2*%
X72357405Y-111511899D03*
X69817405Y-111511899D03*
G36*
G01*
X66407405Y-112356900D02*
X66407405Y-110666898D01*
G75*
G02*
X66657404Y-110416899I249999J0D01*
G01*
X67897406Y-110416899D01*
G75*
G02*
X68147405Y-110666898I0J-249999D01*
G01*
X68147405Y-112356900D01*
G75*
G02*
X67897406Y-112606899I-249999J0D01*
G01*
X66657404Y-112606899D01*
G75*
G02*
X66407405Y-112356900I0J249999D01*
G01*
G37*
%TD*%
D12*
%TO.C,R50*%
X55987905Y-110648699D03*
X63607905Y-110648699D03*
%TD*%
%TO.C,R36*%
X74144705Y-78153099D03*
X81764705Y-78153099D03*
%TD*%
D18*
%TO.C,R33*%
X78059505Y-66567899D03*
X80599505Y-66567899D03*
%TD*%
D12*
%TO.C,T16*%
X122585999Y-170581400D03*
X120680999Y-169311400D03*
X122585999Y-168041400D03*
%TD*%
%TO.C,T15*%
X126045999Y-168121400D03*
X127950999Y-169391400D03*
X126045999Y-170661400D03*
%TD*%
%TO.C,T14*%
X90945999Y-170561400D03*
X89040999Y-169291400D03*
X90945999Y-168021400D03*
%TD*%
%TO.C,T13*%
X94405999Y-168101400D03*
X96310999Y-169371400D03*
X94405999Y-170641400D03*
%TD*%
%TO.C,T12*%
X59285999Y-170561400D03*
X57380999Y-169291400D03*
X59285999Y-168021400D03*
%TD*%
%TO.C,T11*%
X62745999Y-168101400D03*
X64650999Y-169371400D03*
X62745999Y-170641400D03*
%TD*%
%TO.C,T10*%
X27645999Y-170541400D03*
X25740999Y-169271400D03*
X27645999Y-168001400D03*
%TD*%
%TO.C,T9*%
X31105999Y-168081400D03*
X33010999Y-169351400D03*
X31105999Y-170621400D03*
%TD*%
%TO.C,T8*%
X144598565Y-60803770D03*
X146503565Y-62073770D03*
X144598565Y-63343770D03*
%TD*%
%TO.C,T7*%
X141138565Y-63263770D03*
X139233565Y-61993770D03*
X141138565Y-60723770D03*
%TD*%
%TO.C,T6*%
X112733170Y-60817077D03*
X114638170Y-62087077D03*
X112733170Y-63357077D03*
%TD*%
%TO.C,T5*%
X109273170Y-63277077D03*
X107368170Y-62007077D03*
X109273170Y-60737077D03*
%TD*%
D11*
%TO.C,SYNC_MOD8*%
X145276799Y-135009400D03*
%TD*%
%TO.C,SYNC_MOD7*%
X113636799Y-134989400D03*
%TD*%
%TO.C,SYNC_MOD6*%
X81976799Y-134989400D03*
%TD*%
%TO.C,SYNC_MOD5*%
X50336799Y-134969400D03*
%TD*%
%TO.C,SYNC_MOD4*%
X121907765Y-96375770D03*
%TD*%
%TO.C,SYNC_MOD3*%
X90042370Y-96389077D03*
%TD*%
D12*
%TO.C,SCALE8*%
X137274799Y-166373000D03*
X139814799Y-166373000D03*
X137274799Y-168913000D03*
X137274799Y-163833000D03*
%TD*%
%TO.C,SCALE7*%
X105634799Y-166353000D03*
X108174799Y-166353000D03*
X105634799Y-168893000D03*
X105634799Y-163813000D03*
%TD*%
%TO.C,SCALE6*%
X73974799Y-166353000D03*
X76514799Y-166353000D03*
X73974799Y-168893000D03*
X73974799Y-163813000D03*
%TD*%
%TO.C,SCALE5*%
X42334799Y-166333000D03*
X44874799Y-166333000D03*
X42334799Y-168873000D03*
X42334799Y-163793000D03*
%TD*%
%TO.C,SCALE4*%
X129909765Y-65012170D03*
X127369765Y-65012170D03*
X129909765Y-62472170D03*
X129909765Y-67552170D03*
%TD*%
%TO.C,SCALE3*%
X98044370Y-65025477D03*
X95504370Y-65025477D03*
X98044370Y-62485477D03*
X98044370Y-67565477D03*
%TD*%
D11*
%TO.C,SAW_0-10V8*%
X134373679Y-139359240D03*
%TD*%
%TO.C,SAW_0-10V7*%
X102733679Y-139339240D03*
%TD*%
%TO.C,SAW_0-10V6*%
X71073679Y-139339240D03*
%TD*%
%TO.C,SAW_0-10V5*%
X39433679Y-139319240D03*
%TD*%
%TO.C,SAW_0-10V4*%
X132810885Y-92025930D03*
%TD*%
%TO.C,SAW_0-10V3*%
X100945490Y-92039237D03*
%TD*%
D12*
%TO.C,R195*%
X119891998Y-117577000D03*
X127511998Y-117577000D03*
%TD*%
%TO.C,R194*%
X147597599Y-120760600D03*
X139977599Y-120760600D03*
%TD*%
%TO.C,R193*%
X147585199Y-123325400D03*
X139965199Y-123325400D03*
%TD*%
%TO.C,R192*%
X127523598Y-120087400D03*
X119903598Y-120087400D03*
%TD*%
%TO.C,R191*%
X147571199Y-129509400D03*
X139951199Y-129509400D03*
%TD*%
%TO.C,R190*%
X139971199Y-132057000D03*
X147591199Y-132057000D03*
%TD*%
%TO.C,R189*%
X119934798Y-122607000D03*
X127554798Y-122607000D03*
%TD*%
%TO.C,R188*%
X134464799Y-151443000D03*
X134464799Y-143823000D03*
%TD*%
%TO.C,R187*%
X129971999Y-128505000D03*
X137591999Y-128505000D03*
%TD*%
%TO.C,R186*%
X145264799Y-140243000D03*
X137644799Y-140243000D03*
%TD*%
%TO.C,R185*%
X129402799Y-150723800D03*
X121782799Y-150723800D03*
%TD*%
%TO.C,R184*%
X131024399Y-173395400D03*
X138644399Y-173395400D03*
%TD*%
%TO.C,R183*%
X129303199Y-175972200D03*
X121683199Y-175972200D03*
%TD*%
%TO.C,R182*%
X147664799Y-160343000D03*
X147664799Y-152723000D03*
%TD*%
%TO.C,R181*%
X119754799Y-149912600D03*
X119754799Y-157532600D03*
%TD*%
%TO.C,R180*%
X129440799Y-153256200D03*
X121820799Y-153256200D03*
%TD*%
%TO.C,R179*%
X131164799Y-162043000D03*
X131164799Y-169663000D03*
%TD*%
%TO.C,R178*%
X121840799Y-155805400D03*
X129460799Y-155805400D03*
%TD*%
D18*
%TO.C,R177*%
X125525999Y-164841400D03*
X122985999Y-164841400D03*
%TD*%
D12*
%TO.C,R176*%
X131964799Y-139443000D03*
X131964799Y-147063000D03*
%TD*%
%TO.C,R175*%
X140508799Y-173393800D03*
X148128799Y-173393800D03*
%TD*%
%TO.C,R174*%
X131964799Y-130443000D03*
X131964799Y-138063000D03*
%TD*%
%TO.C,R173*%
X148128799Y-175944600D03*
X140508799Y-175944600D03*
%TD*%
%TO.C,R172*%
X131035199Y-175944600D03*
X138655199Y-175944600D03*
%TD*%
%TO.C,R171*%
X88251998Y-117557000D03*
X95871998Y-117557000D03*
%TD*%
%TO.C,R170*%
X115957599Y-120740600D03*
X108337599Y-120740600D03*
%TD*%
%TO.C,R169*%
X115945199Y-123305400D03*
X108325199Y-123305400D03*
%TD*%
%TO.C,R168*%
X95883598Y-120067400D03*
X88263598Y-120067400D03*
%TD*%
%TO.C,R167*%
X115931199Y-129489400D03*
X108311199Y-129489400D03*
%TD*%
%TO.C,R166*%
X108331199Y-132037000D03*
X115951199Y-132037000D03*
%TD*%
%TO.C,R165*%
X88294798Y-122587000D03*
X95914798Y-122587000D03*
%TD*%
%TO.C,R164*%
X102824799Y-151423000D03*
X102824799Y-143803000D03*
%TD*%
%TO.C,R163*%
X98331999Y-128485000D03*
X105951999Y-128485000D03*
%TD*%
%TO.C,R162*%
X113624799Y-140223000D03*
X106004799Y-140223000D03*
%TD*%
%TO.C,R161*%
X97762799Y-150703800D03*
X90142799Y-150703800D03*
%TD*%
%TO.C,R160*%
X99384399Y-173375400D03*
X107004399Y-173375400D03*
%TD*%
%TO.C,R159*%
X97663199Y-175952200D03*
X90043199Y-175952200D03*
%TD*%
%TO.C,R158*%
X116024799Y-160323000D03*
X116024799Y-152703000D03*
%TD*%
%TO.C,R157*%
X88114799Y-149892600D03*
X88114799Y-157512600D03*
%TD*%
%TO.C,R156*%
X97800799Y-153236200D03*
X90180799Y-153236200D03*
%TD*%
%TO.C,R155*%
X99524799Y-162023000D03*
X99524799Y-169643000D03*
%TD*%
%TO.C,R154*%
X90200799Y-155785400D03*
X97820799Y-155785400D03*
%TD*%
D18*
%TO.C,R153*%
X93885999Y-164821400D03*
X91345999Y-164821400D03*
%TD*%
D12*
%TO.C,R152*%
X100324799Y-139423000D03*
X100324799Y-147043000D03*
%TD*%
%TO.C,R151*%
X108868799Y-173373800D03*
X116488799Y-173373800D03*
%TD*%
%TO.C,R150*%
X100324799Y-130423000D03*
X100324799Y-138043000D03*
%TD*%
%TO.C,R149*%
X116488799Y-175924600D03*
X108868799Y-175924600D03*
%TD*%
%TO.C,R148*%
X99395199Y-175924600D03*
X107015199Y-175924600D03*
%TD*%
%TO.C,R147*%
X56591998Y-117557000D03*
X64211998Y-117557000D03*
%TD*%
%TO.C,R146*%
X84297599Y-120740600D03*
X76677599Y-120740600D03*
%TD*%
%TO.C,R145*%
X84285199Y-123305400D03*
X76665199Y-123305400D03*
%TD*%
%TO.C,R144*%
X64223598Y-120067400D03*
X56603598Y-120067400D03*
%TD*%
%TO.C,R143*%
X84271199Y-129489400D03*
X76651199Y-129489400D03*
%TD*%
%TO.C,R142*%
X76671199Y-132037000D03*
X84291199Y-132037000D03*
%TD*%
%TO.C,R141*%
X56634798Y-122587000D03*
X64254798Y-122587000D03*
%TD*%
%TO.C,R140*%
X71164799Y-151423000D03*
X71164799Y-143803000D03*
%TD*%
%TO.C,R139*%
X66671999Y-128485000D03*
X74291999Y-128485000D03*
%TD*%
%TO.C,R138*%
X81964799Y-140223000D03*
X74344799Y-140223000D03*
%TD*%
%TO.C,R137*%
X66102799Y-150703800D03*
X58482799Y-150703800D03*
%TD*%
%TO.C,R136*%
X67724399Y-173375400D03*
X75344399Y-173375400D03*
%TD*%
%TO.C,R135*%
X66003199Y-175952200D03*
X58383199Y-175952200D03*
%TD*%
%TO.C,R134*%
X84364799Y-160323000D03*
X84364799Y-152703000D03*
%TD*%
%TO.C,R133*%
X56454799Y-149892600D03*
X56454799Y-157512600D03*
%TD*%
%TO.C,R132*%
X66140799Y-153236200D03*
X58520799Y-153236200D03*
%TD*%
%TO.C,R131*%
X67864799Y-162023000D03*
X67864799Y-169643000D03*
%TD*%
%TO.C,R130*%
X58540799Y-155785400D03*
X66160799Y-155785400D03*
%TD*%
D18*
%TO.C,R129*%
X62225999Y-164821400D03*
X59685999Y-164821400D03*
%TD*%
D12*
%TO.C,R128*%
X68664799Y-139423000D03*
X68664799Y-147043000D03*
%TD*%
%TO.C,R127*%
X77208799Y-173373800D03*
X84828799Y-173373800D03*
%TD*%
%TO.C,R126*%
X68664799Y-130423000D03*
X68664799Y-138043000D03*
%TD*%
%TO.C,R125*%
X84828799Y-175924600D03*
X77208799Y-175924600D03*
%TD*%
%TO.C,R124*%
X67735199Y-175924600D03*
X75355199Y-175924600D03*
%TD*%
%TO.C,R123*%
X24951998Y-117537000D03*
X32571998Y-117537000D03*
%TD*%
%TO.C,R122*%
X52657599Y-120720600D03*
X45037599Y-120720600D03*
%TD*%
%TO.C,R121*%
X52645199Y-123285400D03*
X45025199Y-123285400D03*
%TD*%
%TO.C,R120*%
X32583598Y-120047400D03*
X24963598Y-120047400D03*
%TD*%
%TO.C,R119*%
X52631199Y-129469400D03*
X45011199Y-129469400D03*
%TD*%
%TO.C,R118*%
X45031199Y-132017000D03*
X52651199Y-132017000D03*
%TD*%
%TO.C,R117*%
X24994798Y-122567000D03*
X32614798Y-122567000D03*
%TD*%
%TO.C,R116*%
X39524799Y-151403000D03*
X39524799Y-143783000D03*
%TD*%
%TO.C,R115*%
X35031999Y-128465000D03*
X42651999Y-128465000D03*
%TD*%
%TO.C,R114*%
X50324799Y-140203000D03*
X42704799Y-140203000D03*
%TD*%
%TO.C,R113*%
X34462799Y-150683800D03*
X26842799Y-150683800D03*
%TD*%
%TO.C,R112*%
X36084399Y-173355400D03*
X43704399Y-173355400D03*
%TD*%
%TO.C,R111*%
X34363199Y-175932200D03*
X26743199Y-175932200D03*
%TD*%
%TO.C,R110*%
X52724799Y-160303000D03*
X52724799Y-152683000D03*
%TD*%
%TO.C,R109*%
X24814799Y-149872600D03*
X24814799Y-157492600D03*
%TD*%
%TO.C,R108*%
X34500799Y-153216200D03*
X26880799Y-153216200D03*
%TD*%
%TO.C,R107*%
X36224799Y-162003000D03*
X36224799Y-169623000D03*
%TD*%
%TO.C,R106*%
X26900799Y-155765400D03*
X34520799Y-155765400D03*
%TD*%
D18*
%TO.C,R105*%
X30585999Y-164801400D03*
X28045999Y-164801400D03*
%TD*%
D12*
%TO.C,R104*%
X37024799Y-139403000D03*
X37024799Y-147023000D03*
%TD*%
%TO.C,R103*%
X45568799Y-173353800D03*
X53188799Y-173353800D03*
%TD*%
%TO.C,R102*%
X37024799Y-130403000D03*
X37024799Y-138023000D03*
%TD*%
%TO.C,R101*%
X53188799Y-175904600D03*
X45568799Y-175904600D03*
%TD*%
%TO.C,R100*%
X36095199Y-175904600D03*
X43715199Y-175904600D03*
%TD*%
%TO.C,R99*%
X147292565Y-113808170D03*
X139672565Y-113808170D03*
%TD*%
%TO.C,R98*%
X119586965Y-110624570D03*
X127206965Y-110624570D03*
%TD*%
%TO.C,R97*%
X119599365Y-108059770D03*
X127219365Y-108059770D03*
%TD*%
%TO.C,R96*%
X139660965Y-111297770D03*
X147280965Y-111297770D03*
%TD*%
%TO.C,R95*%
X119613365Y-101875770D03*
X127233365Y-101875770D03*
%TD*%
%TO.C,R94*%
X127213365Y-99328170D03*
X119593365Y-99328170D03*
%TD*%
%TO.C,R93*%
X147249765Y-108778170D03*
X139629765Y-108778170D03*
%TD*%
%TO.C,R92*%
X132719765Y-79942170D03*
X132719765Y-87562170D03*
%TD*%
%TO.C,R91*%
X137212565Y-102880170D03*
X129592565Y-102880170D03*
%TD*%
%TO.C,R90*%
X121919765Y-91142170D03*
X129539765Y-91142170D03*
%TD*%
%TO.C,R89*%
X137781765Y-80661370D03*
X145401765Y-80661370D03*
%TD*%
%TO.C,R88*%
X136160165Y-57989770D03*
X128540165Y-57989770D03*
%TD*%
%TO.C,R87*%
X137881365Y-55412970D03*
X145501365Y-55412970D03*
%TD*%
%TO.C,R86*%
X119519765Y-71042170D03*
X119519765Y-78662170D03*
%TD*%
%TO.C,R85*%
X147429765Y-81472570D03*
X147429765Y-73852570D03*
%TD*%
%TO.C,R84*%
X137743765Y-78128970D03*
X145363765Y-78128970D03*
%TD*%
%TO.C,R83*%
X136019765Y-69342170D03*
X136019765Y-61722170D03*
%TD*%
%TO.C,R82*%
X145343765Y-75579770D03*
X137723765Y-75579770D03*
%TD*%
D18*
%TO.C,R81*%
X141658565Y-66543770D03*
X144198565Y-66543770D03*
%TD*%
D12*
%TO.C,R80*%
X135219765Y-91942170D03*
X135219765Y-84322170D03*
%TD*%
%TO.C,R79*%
X126675765Y-57991370D03*
X119055765Y-57991370D03*
%TD*%
%TO.C,R78*%
X135219765Y-100942170D03*
X135219765Y-93322170D03*
%TD*%
%TO.C,R77*%
X119055765Y-55440570D03*
X126675765Y-55440570D03*
%TD*%
%TO.C,R76*%
X136149365Y-55440570D03*
X128529365Y-55440570D03*
%TD*%
%TO.C,R75*%
X115427170Y-113821477D03*
X107807170Y-113821477D03*
%TD*%
%TO.C,R74*%
X87721570Y-110637877D03*
X95341570Y-110637877D03*
%TD*%
%TO.C,R73*%
X87733970Y-108073077D03*
X95353970Y-108073077D03*
%TD*%
%TO.C,R72*%
X107795570Y-111311077D03*
X115415570Y-111311077D03*
%TD*%
%TO.C,R71*%
X87747970Y-101889077D03*
X95367970Y-101889077D03*
%TD*%
%TO.C,R70*%
X95347970Y-99341477D03*
X87727970Y-99341477D03*
%TD*%
%TO.C,R69*%
X115384370Y-108791477D03*
X107764370Y-108791477D03*
%TD*%
%TO.C,R68*%
X100854370Y-79955477D03*
X100854370Y-87575477D03*
%TD*%
%TO.C,R67*%
X105347170Y-102893477D03*
X97727170Y-102893477D03*
%TD*%
%TO.C,R66*%
X90054370Y-91155477D03*
X97674370Y-91155477D03*
%TD*%
%TO.C,R65*%
X105916370Y-80674677D03*
X113536370Y-80674677D03*
%TD*%
%TO.C,R64*%
X104294770Y-58003077D03*
X96674770Y-58003077D03*
%TD*%
%TO.C,R63*%
X106015970Y-55426277D03*
X113635970Y-55426277D03*
%TD*%
%TO.C,R62*%
X87654370Y-71055477D03*
X87654370Y-78675477D03*
%TD*%
%TO.C,R61*%
X115564370Y-81485877D03*
X115564370Y-73865877D03*
%TD*%
%TO.C,R60*%
X105878370Y-78142277D03*
X113498370Y-78142277D03*
%TD*%
%TO.C,R59*%
X104154370Y-69355477D03*
X104154370Y-61735477D03*
%TD*%
%TO.C,R58*%
X113478370Y-75593077D03*
X105858370Y-75593077D03*
%TD*%
D18*
%TO.C,R57*%
X109793170Y-66557077D03*
X112333170Y-66557077D03*
%TD*%
D12*
%TO.C,R56*%
X103354370Y-91955477D03*
X103354370Y-84335477D03*
%TD*%
%TO.C,R55*%
X94810370Y-58004677D03*
X87190370Y-58004677D03*
%TD*%
%TO.C,R32*%
X71620705Y-91966299D03*
X71620705Y-84346299D03*
%TD*%
%TO.C,R31*%
X63076705Y-58015499D03*
X55456705Y-58015499D03*
%TD*%
%TO.C,R30*%
X71620705Y-100966299D03*
X71620705Y-93346299D03*
%TD*%
%TO.C,Q16*%
X137374799Y-133523000D03*
X136104799Y-131618000D03*
X134834799Y-133523000D03*
%TD*%
%TO.C,Q14*%
X105734799Y-133503000D03*
X104464799Y-131598000D03*
X103194799Y-133503000D03*
%TD*%
%TO.C,Q12*%
X74074799Y-133503000D03*
X72804799Y-131598000D03*
X71534799Y-133503000D03*
%TD*%
%TO.C,Q10*%
X42434799Y-133483000D03*
X41164799Y-131578000D03*
X39894799Y-133483000D03*
%TD*%
%TO.C,Q8*%
X129809765Y-97862170D03*
X131079765Y-99767170D03*
X132349765Y-97862170D03*
%TD*%
%TO.C,Q6*%
X97944370Y-97875477D03*
X99214370Y-99780477D03*
X100484370Y-97875477D03*
%TD*%
%TO.C,OFFSET8*%
X145314799Y-166403000D03*
X142774799Y-166403000D03*
X145314799Y-163863000D03*
X145314799Y-168943000D03*
%TD*%
%TO.C,OFFSET7*%
X113674799Y-166383000D03*
X111134799Y-166383000D03*
X113674799Y-163843000D03*
X113674799Y-168923000D03*
%TD*%
%TO.C,OFFSET6*%
X82014799Y-166383000D03*
X79474799Y-166383000D03*
X82014799Y-163843000D03*
X82014799Y-168923000D03*
%TD*%
%TO.C,OFFSET5*%
X50374799Y-166363000D03*
X47834799Y-166363000D03*
X50374799Y-163823000D03*
X50374799Y-168903000D03*
%TD*%
%TO.C,OFFSET4*%
X121869765Y-64982170D03*
X124409765Y-64982170D03*
X121869765Y-67522170D03*
X121869765Y-62442170D03*
%TD*%
%TO.C,OFFSET3*%
X90004370Y-64995477D03*
X92544370Y-64995477D03*
X90004370Y-67535477D03*
X90004370Y-62455477D03*
%TD*%
D19*
%TO.C,IC16*%
X137544799Y-147023000D03*
X137544799Y-149563000D03*
X145164799Y-147023000D03*
X145164799Y-149563000D03*
X137544799Y-154643000D03*
X137544799Y-152103000D03*
X145164799Y-152103000D03*
X145164799Y-154643000D03*
%TD*%
D20*
%TO.C,IC15*%
X119974799Y-145143000D03*
X119974799Y-142603000D03*
X119974799Y-140063000D03*
X119974799Y-137523000D03*
X119974799Y-134983000D03*
X119974799Y-132443000D03*
X127594799Y-134983000D03*
X127594799Y-132443000D03*
X127594799Y-137523000D03*
X127594799Y-140063000D03*
X119974799Y-129903000D03*
X127594799Y-129903000D03*
X127594799Y-142603000D03*
X127594799Y-145143000D03*
%TD*%
D19*
%TO.C,IC14*%
X105904799Y-147003000D03*
X105904799Y-149543000D03*
X113524799Y-147003000D03*
X113524799Y-149543000D03*
X105904799Y-154623000D03*
X105904799Y-152083000D03*
X113524799Y-152083000D03*
X113524799Y-154623000D03*
%TD*%
D20*
%TO.C,IC13*%
X88334799Y-145123000D03*
X88334799Y-142583000D03*
X88334799Y-140043000D03*
X88334799Y-137503000D03*
X88334799Y-134963000D03*
X88334799Y-132423000D03*
X95954799Y-134963000D03*
X95954799Y-132423000D03*
X95954799Y-137503000D03*
X95954799Y-140043000D03*
X88334799Y-129883000D03*
X95954799Y-129883000D03*
X95954799Y-142583000D03*
X95954799Y-145123000D03*
%TD*%
D19*
%TO.C,IC12*%
X74244799Y-147003000D03*
X74244799Y-149543000D03*
X81864799Y-147003000D03*
X81864799Y-149543000D03*
X74244799Y-154623000D03*
X74244799Y-152083000D03*
X81864799Y-152083000D03*
X81864799Y-154623000D03*
%TD*%
D20*
%TO.C,IC11*%
X56674799Y-145123000D03*
X56674799Y-142583000D03*
X56674799Y-140043000D03*
X56674799Y-137503000D03*
X56674799Y-134963000D03*
X56674799Y-132423000D03*
X64294799Y-134963000D03*
X64294799Y-132423000D03*
X64294799Y-137503000D03*
X64294799Y-140043000D03*
X56674799Y-129883000D03*
X64294799Y-129883000D03*
X64294799Y-142583000D03*
X64294799Y-145123000D03*
%TD*%
D19*
%TO.C,IC10*%
X42604799Y-146983000D03*
X42604799Y-149523000D03*
X50224799Y-146983000D03*
X50224799Y-149523000D03*
X42604799Y-154603000D03*
X42604799Y-152063000D03*
X50224799Y-152063000D03*
X50224799Y-154603000D03*
%TD*%
D20*
%TO.C,IC9*%
X25034799Y-145103000D03*
X25034799Y-142563000D03*
X25034799Y-140023000D03*
X25034799Y-137483000D03*
X25034799Y-134943000D03*
X25034799Y-132403000D03*
X32654799Y-134943000D03*
X32654799Y-132403000D03*
X32654799Y-137483000D03*
X32654799Y-140023000D03*
X25034799Y-129863000D03*
X32654799Y-129863000D03*
X32654799Y-142563000D03*
X32654799Y-145103000D03*
%TD*%
D19*
%TO.C,IC8*%
X129639765Y-84362170D03*
X129639765Y-81822170D03*
X122019765Y-84362170D03*
X122019765Y-81822170D03*
X129639765Y-76742170D03*
X129639765Y-79282170D03*
X122019765Y-79282170D03*
X122019765Y-76742170D03*
%TD*%
D20*
%TO.C,IC7*%
X147209765Y-86242170D03*
X147209765Y-88782170D03*
X147209765Y-91322170D03*
X147209765Y-93862170D03*
X147209765Y-96402170D03*
X147209765Y-98942170D03*
X139589765Y-96402170D03*
X139589765Y-98942170D03*
X139589765Y-93862170D03*
X139589765Y-91322170D03*
X147209765Y-101482170D03*
X139589765Y-101482170D03*
X139589765Y-88782170D03*
X139589765Y-86242170D03*
%TD*%
D19*
%TO.C,IC6*%
X97774370Y-84375477D03*
X97774370Y-81835477D03*
X90154370Y-84375477D03*
X90154370Y-81835477D03*
X97774370Y-76755477D03*
X97774370Y-79295477D03*
X90154370Y-79295477D03*
X90154370Y-76755477D03*
%TD*%
D20*
%TO.C,IC5*%
X115344370Y-86255477D03*
X115344370Y-88795477D03*
X115344370Y-91335477D03*
X115344370Y-93875477D03*
X115344370Y-96415477D03*
X115344370Y-98955477D03*
X107724370Y-96415477D03*
X107724370Y-98955477D03*
X107724370Y-93875477D03*
X107724370Y-91335477D03*
X115344370Y-101495477D03*
X107724370Y-101495477D03*
X107724370Y-88795477D03*
X107724370Y-86255477D03*
%TD*%
%TO.C,D16*%
X145244799Y-137553000D03*
X137624799Y-137553000D03*
%TD*%
D18*
%TO.C,D15*%
X147624799Y-142743000D03*
X147624799Y-150363000D03*
%TD*%
D20*
%TO.C,D14*%
X113604799Y-137533000D03*
X105984799Y-137533000D03*
%TD*%
D18*
%TO.C,D13*%
X115984799Y-142723000D03*
X115984799Y-150343000D03*
%TD*%
D20*
%TO.C,D12*%
X81944799Y-137533000D03*
X74324799Y-137533000D03*
%TD*%
D18*
%TO.C,D11*%
X84324799Y-142723000D03*
X84324799Y-150343000D03*
%TD*%
D20*
%TO.C,D10*%
X50304799Y-137513000D03*
X42684799Y-137513000D03*
%TD*%
D18*
%TO.C,D9*%
X52684799Y-142703000D03*
X52684799Y-150323000D03*
%TD*%
D20*
%TO.C,D8*%
X121939765Y-93832170D03*
X129559765Y-93832170D03*
%TD*%
D18*
%TO.C,D7*%
X119559765Y-88642170D03*
X119559765Y-81022170D03*
%TD*%
D20*
%TO.C,D6*%
X90074370Y-93845477D03*
X97694370Y-93845477D03*
%TD*%
D18*
%TO.C,D5*%
X87694370Y-88655477D03*
X87694370Y-81035477D03*
%TD*%
D12*
%TO.C,C62*%
X141200399Y-126435000D03*
X146280399Y-126435000D03*
%TD*%
%TO.C,C61*%
X131103599Y-125459000D03*
X136183599Y-125459000D03*
%TD*%
%TO.C,C60*%
X134139199Y-153623800D03*
X134139199Y-158703800D03*
%TD*%
%TO.C,C59*%
X138794799Y-158283000D03*
X143874799Y-158283000D03*
%TD*%
%TO.C,C58*%
X126364798Y-126613000D03*
X121284798Y-126613000D03*
%TD*%
%TO.C,C57*%
X121299199Y-147912600D03*
X126379199Y-147912600D03*
%TD*%
%TO.C,C56*%
X138934799Y-143613000D03*
X144014799Y-143613000D03*
%TD*%
%TO.C,C55*%
X109560399Y-126415000D03*
X114640399Y-126415000D03*
%TD*%
%TO.C,C54*%
X99463599Y-125439000D03*
X104543599Y-125439000D03*
%TD*%
%TO.C,C53*%
X102499199Y-153603800D03*
X102499199Y-158683800D03*
%TD*%
%TO.C,C52*%
X107154799Y-158263000D03*
X112234799Y-158263000D03*
%TD*%
%TO.C,C51*%
X94724798Y-126593000D03*
X89644798Y-126593000D03*
%TD*%
%TO.C,C50*%
X89659199Y-147892600D03*
X94739199Y-147892600D03*
%TD*%
%TO.C,C49*%
X107294799Y-143593000D03*
X112374799Y-143593000D03*
%TD*%
%TO.C,C48*%
X77900399Y-126415000D03*
X82980399Y-126415000D03*
%TD*%
%TO.C,C47*%
X67803599Y-125439000D03*
X72883599Y-125439000D03*
%TD*%
%TO.C,C46*%
X70839199Y-153603800D03*
X70839199Y-158683800D03*
%TD*%
%TO.C,C45*%
X75494799Y-158263000D03*
X80574799Y-158263000D03*
%TD*%
%TO.C,C44*%
X63064798Y-126593000D03*
X57984798Y-126593000D03*
%TD*%
%TO.C,C43*%
X57999199Y-147892600D03*
X63079199Y-147892600D03*
%TD*%
%TO.C,C42*%
X75634799Y-143593000D03*
X80714799Y-143593000D03*
%TD*%
%TO.C,C41*%
X46260399Y-126395000D03*
X51340399Y-126395000D03*
%TD*%
%TO.C,C40*%
X36163599Y-125419000D03*
X41243599Y-125419000D03*
%TD*%
%TO.C,C39*%
X39199199Y-153583800D03*
X39199199Y-158663800D03*
%TD*%
%TO.C,C38*%
X43854799Y-158243000D03*
X48934799Y-158243000D03*
%TD*%
%TO.C,C37*%
X31424798Y-126573000D03*
X26344798Y-126573000D03*
%TD*%
%TO.C,C36*%
X26359199Y-147872600D03*
X31439199Y-147872600D03*
%TD*%
%TO.C,C35*%
X43994799Y-143573000D03*
X49074799Y-143573000D03*
%TD*%
%TO.C,C34*%
X125984165Y-104950170D03*
X120904165Y-104950170D03*
%TD*%
%TO.C,C33*%
X136080965Y-105926170D03*
X131000965Y-105926170D03*
%TD*%
%TO.C,C32*%
X133045365Y-77761370D03*
X133045365Y-72681370D03*
%TD*%
%TO.C,C31*%
X128389765Y-73102170D03*
X123309765Y-73102170D03*
%TD*%
%TO.C,C30*%
X140819765Y-104772170D03*
X145899765Y-104772170D03*
%TD*%
%TO.C,C29*%
X145885365Y-83472570D03*
X140805365Y-83472570D03*
%TD*%
%TO.C,C28*%
X128249765Y-87772170D03*
X123169765Y-87772170D03*
%TD*%
%TO.C,C27*%
X94118770Y-104963477D03*
X89038770Y-104963477D03*
%TD*%
%TO.C,C19*%
X72481905Y-105950299D03*
X67401905Y-105950299D03*
%TD*%
%TO.C,C18*%
X69446305Y-77785499D03*
X69446305Y-72705499D03*
%TD*%
%TO.C,C17*%
X64790705Y-73126299D03*
X59710705Y-73126299D03*
%TD*%
%TO.C,C15*%
X82286305Y-83496699D03*
X77206305Y-83496699D03*
%TD*%
%TO.C,C14*%
X64650705Y-87796299D03*
X59570705Y-87796299D03*
%TD*%
D21*
%TO.C,C6*%
X155630000Y-117500000D03*
X158170000Y-117500000D03*
%TD*%
D12*
%TO.C,R4*%
X151200000Y-69463942D03*
X151200000Y-77083942D03*
%TD*%
%TO.C,R5*%
X149796145Y-59364950D03*
X149796145Y-66984950D03*
%TD*%
D22*
%TO.C,PWR1*%
X158502345Y-77138649D03*
X155962345Y-77138649D03*
X158502345Y-74598649D03*
X155962345Y-74598649D03*
X158502345Y-72058649D03*
X155962345Y-72058649D03*
X158502345Y-69518649D03*
X155962345Y-69518649D03*
X158502345Y-66978649D03*
X155962345Y-66978649D03*
X158502345Y-64438649D03*
X155962345Y-64438649D03*
X158502345Y-61898649D03*
X155962345Y-61898649D03*
X158502345Y-59358649D03*
X155962345Y-59358649D03*
%TD*%
D12*
%TO.C,C2*%
X154260000Y-110200000D03*
X159340000Y-110200000D03*
%TD*%
%TO.C,C5*%
X154360000Y-122600000D03*
X159440000Y-122600000D03*
%TD*%
D21*
%TO.C,C4*%
X158070000Y-105300000D03*
X155530000Y-105300000D03*
%TD*%
D12*
%TO.C,R3*%
X161010000Y-86800000D03*
X153390000Y-86800000D03*
%TD*%
%TO.C,C3*%
X154260000Y-97700000D03*
X159340000Y-97700000D03*
%TD*%
D21*
%TO.C,C1*%
X155430000Y-92000000D03*
X157970000Y-92000000D03*
%TD*%
D19*
%TO.C,IC2*%
X34263300Y-84374400D03*
X34263300Y-81834400D03*
X26643300Y-84374400D03*
X26643300Y-81834400D03*
X34263300Y-76754400D03*
X34263300Y-79294400D03*
X26643300Y-79294400D03*
X26643300Y-76754400D03*
%TD*%
D20*
%TO.C,IC1*%
X51833300Y-86254400D03*
X51833300Y-88794400D03*
X51833300Y-91334400D03*
X51833300Y-93874400D03*
X51833300Y-96414400D03*
X51833300Y-98954400D03*
X44213300Y-96414400D03*
X44213300Y-98954400D03*
X44213300Y-93874400D03*
X44213300Y-91334400D03*
X51833300Y-101494400D03*
X44213300Y-101494400D03*
X44213300Y-88794400D03*
X44213300Y-86254400D03*
%TD*%
D12*
%TO.C,T4*%
X80999505Y-60827899D03*
X82904505Y-62097899D03*
X80999505Y-63367899D03*
%TD*%
%TO.C,T3*%
X77539505Y-63287899D03*
X75634505Y-62017899D03*
X77539505Y-60747899D03*
%TD*%
D11*
%TO.C,SYNC_MOD2*%
X58308705Y-96399899D03*
%TD*%
D12*
%TO.C,SCALE2*%
X66310705Y-65036299D03*
X63770705Y-65036299D03*
X66310705Y-62496299D03*
X66310705Y-67576299D03*
%TD*%
D11*
%TO.C,SAW_0-10V2*%
X69211825Y-92050059D03*
%TD*%
D12*
%TO.C,R54*%
X103354370Y-100955477D03*
X103354370Y-93335477D03*
%TD*%
%TO.C,R53*%
X87190370Y-55453877D03*
X94810370Y-55453877D03*
%TD*%
%TO.C,R52*%
X104283970Y-55453877D03*
X96663970Y-55453877D03*
%TD*%
%TO.C,R51*%
X83693505Y-113832299D03*
X76073505Y-113832299D03*
%TD*%
%TO.C,R49*%
X56000305Y-108083899D03*
X63620305Y-108083899D03*
%TD*%
%TO.C,R48*%
X76061905Y-111321899D03*
X83681905Y-111321899D03*
%TD*%
%TO.C,R47*%
X56014305Y-101899899D03*
X63634305Y-101899899D03*
%TD*%
%TO.C,R46*%
X63614305Y-99352299D03*
X55994305Y-99352299D03*
%TD*%
%TO.C,R45*%
X83650705Y-108802299D03*
X76030705Y-108802299D03*
%TD*%
%TO.C,R44*%
X69120705Y-79966299D03*
X69120705Y-87586299D03*
%TD*%
%TO.C,R43*%
X73613505Y-102904299D03*
X65993505Y-102904299D03*
%TD*%
%TO.C,R42*%
X58320705Y-91166299D03*
X65940705Y-91166299D03*
%TD*%
%TO.C,R41*%
X74182705Y-80685499D03*
X81802705Y-80685499D03*
%TD*%
%TO.C,R40*%
X72561105Y-58013899D03*
X64941105Y-58013899D03*
%TD*%
%TO.C,R39*%
X74282305Y-55437099D03*
X81902305Y-55437099D03*
%TD*%
%TO.C,R38*%
X55920705Y-71066299D03*
X55920705Y-78686299D03*
%TD*%
%TO.C,R37*%
X83830705Y-81496699D03*
X83830705Y-73876699D03*
%TD*%
%TO.C,R35*%
X72420705Y-69366299D03*
X72420705Y-61746299D03*
%TD*%
%TO.C,R34*%
X81744705Y-75603899D03*
X74124705Y-75603899D03*
%TD*%
%TO.C,R29*%
X55456705Y-55464699D03*
X63076705Y-55464699D03*
%TD*%
%TO.C,R28*%
X72550305Y-55464699D03*
X64930305Y-55464699D03*
%TD*%
%TO.C,Q4*%
X66210705Y-97886299D03*
X67480705Y-99791299D03*
X68750705Y-97886299D03*
%TD*%
%TO.C,OFFSET2*%
X58270705Y-65006299D03*
X60810705Y-65006299D03*
X58270705Y-67546299D03*
X58270705Y-62466299D03*
%TD*%
D19*
%TO.C,IC4*%
X66040705Y-84386299D03*
X66040705Y-81846299D03*
X58420705Y-84386299D03*
X58420705Y-81846299D03*
X66040705Y-76766299D03*
X66040705Y-79306299D03*
X58420705Y-79306299D03*
X58420705Y-76766299D03*
%TD*%
D20*
%TO.C,IC3*%
X83610705Y-86266299D03*
X83610705Y-88806299D03*
X83610705Y-91346299D03*
X83610705Y-93886299D03*
X83610705Y-96426299D03*
X83610705Y-98966299D03*
X75990705Y-96426299D03*
X75990705Y-98966299D03*
X75990705Y-93886299D03*
X75990705Y-91346299D03*
X83610705Y-101506299D03*
X75990705Y-101506299D03*
X75990705Y-88806299D03*
X75990705Y-86266299D03*
%TD*%
%TO.C,D4*%
X58340705Y-93856299D03*
X65960705Y-93856299D03*
%TD*%
D18*
%TO.C,D3*%
X55960705Y-88666299D03*
X55960705Y-81046299D03*
%TD*%
D12*
%TO.C,C26*%
X104215570Y-105939477D03*
X99135570Y-105939477D03*
%TD*%
%TO.C,C25*%
X101179970Y-77774677D03*
X101179970Y-72694677D03*
%TD*%
%TO.C,C24*%
X96524370Y-73115477D03*
X91444370Y-73115477D03*
%TD*%
%TO.C,C23*%
X108954370Y-104785477D03*
X114034370Y-104785477D03*
%TD*%
%TO.C,C20*%
X62385105Y-104974299D03*
X57305105Y-104974299D03*
%TD*%
%TO.C,C10*%
X33013300Y-73114400D03*
X27933300Y-73114400D03*
%TD*%
%TO.C,C7*%
X32873300Y-87784400D03*
X27793300Y-87784400D03*
%TD*%
%TO.C,C13*%
X30607700Y-104962400D03*
X25527700Y-104962400D03*
%TD*%
%TO.C,C11*%
X37668900Y-77773600D03*
X37668900Y-72693600D03*
%TD*%
%TO.C,C9*%
X45443300Y-104784400D03*
X50523300Y-104784400D03*
%TD*%
D20*
%TO.C,D2*%
X26563300Y-93844400D03*
X34183300Y-93844400D03*
%TD*%
D18*
%TO.C,D1*%
X24183300Y-88654400D03*
X24183300Y-81034400D03*
%TD*%
D12*
%TO.C,Q2*%
X34433300Y-97874400D03*
X35703300Y-99779400D03*
X36973300Y-97874400D03*
%TD*%
%TO.C,R6*%
X39843300Y-100954400D03*
X39843300Y-93334400D03*
%TD*%
%TO.C,R7*%
X31299300Y-58003600D03*
X23679300Y-58003600D03*
%TD*%
%TO.C,R12*%
X42367300Y-78141200D03*
X49987300Y-78141200D03*
%TD*%
%TO.C,R20*%
X37343300Y-79954400D03*
X37343300Y-87574400D03*
%TD*%
%TO.C,R2*%
X23679300Y-55452800D03*
X31299300Y-55452800D03*
%TD*%
%TO.C,R19*%
X41836100Y-102892400D03*
X34216100Y-102892400D03*
%TD*%
%TO.C,R21*%
X51873300Y-108790400D03*
X44253300Y-108790400D03*
%TD*%
%TO.C,R24*%
X44284500Y-111310000D03*
X51904500Y-111310000D03*
%TD*%
%TO.C,R13*%
X52053300Y-81484800D03*
X52053300Y-73864800D03*
%TD*%
%TO.C,R27*%
X51916100Y-113820400D03*
X44296100Y-113820400D03*
%TD*%
%TO.C,R15*%
X42504900Y-55425200D03*
X50124900Y-55425200D03*
%TD*%
%TO.C,R16*%
X40783700Y-58002000D03*
X33163700Y-58002000D03*
%TD*%
%TO.C,R8*%
X39843300Y-91954400D03*
X39843300Y-84334400D03*
%TD*%
%TO.C,R18*%
X26543300Y-91154400D03*
X34163300Y-91154400D03*
%TD*%
%TO.C,R14*%
X24143300Y-71054400D03*
X24143300Y-78674400D03*
%TD*%
%TO.C,R23*%
X24236900Y-101888000D03*
X31856900Y-101888000D03*
%TD*%
%TO.C,R10*%
X49967300Y-75592000D03*
X42347300Y-75592000D03*
%TD*%
%TO.C,R22*%
X31836900Y-99340400D03*
X24216900Y-99340400D03*
%TD*%
%TO.C,R1*%
X40772900Y-55452800D03*
X33152900Y-55452800D03*
%TD*%
D18*
%TO.C,R9*%
X46282100Y-66556000D03*
X48822100Y-66556000D03*
%TD*%
D12*
%TO.C,R26*%
X24210500Y-110636800D03*
X31830500Y-110636800D03*
%TD*%
%TO.C,T1*%
X45762100Y-63276000D03*
X43857100Y-62006000D03*
X45762100Y-60736000D03*
%TD*%
%TO.C,T2*%
X49222100Y-60816000D03*
X51127100Y-62086000D03*
X49222100Y-63356000D03*
%TD*%
%TO.C,R17*%
X42405300Y-80673600D03*
X50025300Y-80673600D03*
%TD*%
%TO.C,R11*%
X40643300Y-69354400D03*
X40643300Y-61734400D03*
%TD*%
%TO.C,R25*%
X24222900Y-108072000D03*
X31842900Y-108072000D03*
%TD*%
%TO.C,C12*%
X40704500Y-105938400D03*
X35624500Y-105938400D03*
%TD*%
D11*
%TO.C,SAW_0-10V1*%
X37434420Y-92038160D03*
%TD*%
%TO.C,SYNC_MOD1*%
X26531300Y-96388000D03*
%TD*%
D12*
%TO.C,C8*%
X50508900Y-83484800D03*
X45428900Y-83484800D03*
%TD*%
M02*
