M48
; DRILL file {KiCad 5.1.8-db9833491~88~ubuntu16.04.1} date Sat Jan 16 20:59:33 2021
; FORMAT={-:-/ absolute / inch / decimal}
; #@! TF.CreationDate,2021-01-16T20:59:33+01:00
; #@! TF.GenerationSoftware,Kicad,Pcbnew,5.1.8-db9833491~88~ubuntu16.04.1
FMAT,2
INCH
T1C0.0138
T2C0.0150
T3C0.0315
T4C0.0320
T5C0.0360
T6C0.0394
T7C0.0400
T8C0.0469
T9C0.1220
%
G90
G05
T1
X1.3757Y-3.4667
X1.6506Y-5.6419
X2.6268Y-3.4672
X2.8963Y-5.6426
X3.8762Y-3.4668
X4.1427Y-5.6426
X5.1307Y-3.4662
X5.3884Y-5.6434
T2
X1.0971Y-6.3351
X1.1395Y-3.5848
X1.2467Y-6.2445
X1.7796Y-2.864
X1.8868Y-5.5237
X1.9292Y-2.7735
X2.3058Y-4.5311
X2.3428Y-6.3359
X2.3906Y-3.5853
X2.4924Y-6.2453
X3.0307Y-2.8645
X3.1325Y-5.5245
X3.1484Y-4.5721
X3.1496Y-4.3858
X3.1803Y-2.7739
X3.3763Y-4.5308
X3.5892Y-6.3359
X3.6399Y-3.5849
X3.7388Y-6.2453
X4.28Y-2.8641
X4.3789Y-5.5245
X4.4082Y-4.5721
X4.4094Y-4.3701
X4.4297Y-2.7735
X4.6225Y-4.5311
X4.8349Y-6.3367
X4.8945Y-3.5843
X4.9845Y-6.2461
X5.5346Y-2.8635
X5.6246Y-5.5253
X5.6681Y-4.5721
X5.6693Y-4.3819
X5.6842Y-2.773
X5.8386Y-4.5709
X5.8969Y-4.4559
X5.9382Y-4.3386
T3
X6.0591Y-5.7559
X6.1591Y-5.7559
X6.2591Y-5.7559
T4
X2.9124Y-6.4493
X2.9124Y-6.5493
X2.9124Y-6.6493
X3.0124Y-6.5493
X5.117Y-5.0593
X5.417Y-5.0593
X3.8475Y-4.0509
X4.1475Y-4.0509
X4.0628Y-5.256
X4.1128Y-5.181
X4.1628Y-5.256
X1.0372Y-4.9832
X1.2372Y-4.9832
X4.2427Y-4.2831
X4.5427Y-4.2831
X0.9323Y-2.1832
X1.2323Y-2.1832
X4.2642Y-5.098
X4.5642Y-5.098
X5.8975Y-2.3372
X5.8975Y-2.6372
X6.1232Y-4.1457
X6.2232Y-4.1457
X2.8197Y-3.3207
X2.8197Y-3.6207
X1.043Y-2.4588
X1.043Y-2.5588
X1.043Y-2.6588
X1.143Y-2.5588
X1.3556Y-3.8533
X1.4056Y-3.9283
X1.4556Y-3.8533
X2.6667Y-6.9262
X2.9667Y-6.9262
X3.0732Y-2.6208
X3.1732Y-2.6208
X1.2596Y-2.56
X1.3596Y-2.46
X1.3596Y-2.56
X1.3596Y-2.66
X4.0482Y-5.6615
X4.0482Y-5.9615
X4.2439Y-4.3823
X4.5439Y-4.3823
X1.7891Y-4.1254
X1.9891Y-4.1254
X4.2187Y-6.2308
X4.4187Y-6.2308
X3.9835Y-2.862
X3.9835Y-3.062
X5.4699Y-5.6541
X5.6699Y-5.6541
X2.2969Y-3.6951
X2.5969Y-3.6951
X1.7731Y-4.7528
X2.0731Y-4.7528
X3.5299Y-5.8225
X3.7299Y-5.8225
X5.4284Y-2.1816
X5.7284Y-2.1816
X3.8713Y-5.0585
X4.1713Y-5.0585
X1.483Y-2.862
X1.483Y-3.062
X2.7341Y-2.8624
X2.7341Y-3.0624
X5.4989Y-4.4806
X5.7989Y-4.4806
X3.9183Y-6.3789
X3.9183Y-6.6789
X2.2961Y-3.5892
X2.5961Y-3.5892
X2.2561Y-4.1328
X2.4561Y-4.1328
X3.4745Y-4.6282
X3.7745Y-4.6282
X3.6002Y-2.8786
X3.8002Y-2.8786
X5.0602Y-2.1827
X5.3602Y-2.1827
X1.7885Y-3.2868
X1.9885Y-3.2868
X2.1833Y-2.2841
X2.4833Y-2.2841
X4.1726Y-5.4147
X4.4726Y-5.4147
X5.2811Y-6.0482
X5.2811Y-6.2482
X4.0354Y-6.0474
X4.0354Y-6.2474
X5.4644Y-6.2316
X5.6644Y-6.2316
X3.9498Y-5.4891
X3.9498Y-5.7891
X1.0583Y-6.0321
X1.3583Y-6.0321
X1.4577Y-5.4883
X1.4577Y-5.7883
X3.0178Y-5.098
X3.3178Y-5.098
X5.1584Y-6.8266
X5.4584Y-6.8266
X4.9624Y-6.619
X4.9624Y-6.719
X5.0374Y-6.669
X5.5441Y-4.1249
X5.7441Y-4.1249
X6.0772Y-4.8268
X6.2772Y-4.8268
X3.545Y-6.9273
X3.845Y-6.9273
X3.0397Y-6.9262
X3.3397Y-6.9262
X0.9537Y-4.2548
X1.2537Y-4.2548
X2.1833Y-2.1836
X2.4833Y-2.1836
X1.4577Y-5.134
X1.4577Y-5.434
X3.9132Y-6.9262
X4.2132Y-6.9262
X1.6734Y-2.1821
X1.9734Y-2.1821
X5.2252Y-3.1473
X5.2252Y-3.4473
X1.8213Y-4.9762
X2.0213Y-4.9762
X3.9706Y-3.1479
X3.9706Y-3.4479
X1.4211Y-6.9254
X1.7211Y-6.9254
X1.0458Y-3.6947
X1.3458Y-3.6947
X4.842Y-6.4898
X4.942Y-6.4898
X5.5099Y-5.0988
X5.8099Y-5.0988
X0.9828Y-4.7263
X1.2828Y-4.7263
X1.3052Y-2.1832
X1.6052Y-2.1832
X1.0942Y-3.4561
X1.2942Y-3.4561
X4.2444Y-4.4812
X4.5444Y-4.4812
X2.304Y-6.0329
X2.604Y-6.0329
X5.164Y-6.3796
X5.164Y-6.6796
X5.5318Y-6.8265
X5.8318Y-6.8265
X3.5504Y-6.0329
X3.8504Y-6.0329
X5.6211Y-6.5513
X5.7211Y-6.4513
X5.7211Y-6.5513
X5.7211Y-6.6513
X1.9379Y-2.3943
X1.9379Y-2.4943
X2.0129Y-2.4443
X1.4262Y-6.3781
X1.4262Y-6.6781
X2.2834Y-5.8225
X2.4834Y-5.8225
X4.8547Y-2.878
X5.0547Y-2.878
X2.9722Y-6.2308
X3.1722Y-6.2308
X4.2895Y-4.1254
X4.4895Y-4.1254
X0.9542Y-4.0113
X1.2542Y-4.0113
X5.8136Y-6.0127
X5.8136Y-6.3127
X0.9856Y-5.1127
X0.9856Y-5.2127
X0.9856Y-5.3127
X0.9856Y-5.4127
X0.9856Y-5.5127
X0.9856Y-5.6127
X0.9856Y-5.7127
X1.2856Y-5.1127
X1.2856Y-5.2127
X1.2856Y-5.3127
X1.2856Y-5.4127
X1.2856Y-5.5127
X1.2856Y-5.6127
X1.2856Y-5.7127
X2.2285Y-4.7271
X2.5285Y-4.7271
X3.451Y-2.7975
X3.451Y-3.0975
X6.0732Y-4.3386
X6.2732Y-4.3386
X1.5686Y-3.3203
X1.5686Y-3.6203
X2.9777Y-5.6533
X3.1777Y-5.6533
X2.927Y-5.5206
X3.227Y-5.5206
X1.5707Y-5.2552
X1.6207Y-5.1802
X1.6707Y-5.2552
X1.0591Y-6.1325
X1.3591Y-6.1325
X1.005Y-4.1324
X1.205Y-4.1324
X4.0691Y-3.3203
X4.0691Y-3.6203
X5.5771Y-2.6198
X5.6771Y-2.6198
X4.1739Y-2.1821
X4.4739Y-2.1821
X2.5107Y-2.5605
X2.6107Y-2.4605
X2.6107Y-2.5605
X2.6107Y-2.6605
X1.8221Y-2.6203
X1.9221Y-2.6203
X4.7206Y-4.7279
X5.0206Y-4.7279
X3.8561Y-3.8534
X3.9061Y-3.9284
X3.9561Y-3.8534
X0.9505Y-2.7974
X0.9505Y-3.0974
X3.0396Y-3.2873
X3.2396Y-3.2873
X4.7969Y-6.1341
X5.0969Y-6.1341
X2.3498Y-6.489
X2.4498Y-6.489
X4.8039Y-3.0213
X4.8039Y-3.1213
X4.8039Y-3.2213
X4.8039Y-3.3213
X5.1039Y-3.0213
X5.1039Y-3.1213
X5.1039Y-3.2213
X5.1039Y-3.3213
X3.0186Y-5.1983
X3.3186Y-5.1983
X3.0188Y-4.7536
X3.3188Y-4.7536
X5.3236Y-3.6741
X5.3236Y-3.9741
X3.4525Y-3.1904
X3.4525Y-3.4904
X2.3Y-3.0223
X2.3Y-3.1223
X2.3Y-3.2223
X2.3Y-3.3223
X2.6Y-3.0223
X2.6Y-3.1223
X2.6Y-3.2223
X2.6Y-3.3223
X5.4191Y-5.5214
X5.7191Y-5.5214
X6.0075Y-5.9882
X6.3075Y-5.9882
X4.4383Y-2.3944
X4.4383Y-2.4944
X4.5133Y-2.4444
X4.2648Y-4.8545
X4.5648Y-4.8545
X4.6872Y-2.2831
X4.9872Y-2.2831
X4.7081Y-4.3553
X5.0081Y-4.3553
X1.7423Y-4.2831
X2.0423Y-4.2831
X5.4183Y-5.4155
X5.7183Y-5.4155
X5.812Y-5.6198
X5.812Y-5.9198
X4.2271Y-2.4412
X4.3021Y-2.3912
X4.3021Y-2.4912
X5.0606Y-2.2831
X5.3606Y-2.2831
X2.8512Y-2.431
X2.8512Y-2.731
X2.8018Y-5.6615
X2.8018Y-5.9615
X2.6536Y-4.1713
X2.8536Y-4.1713
X2.2941Y-2.4593
X2.2941Y-2.5593
X2.2941Y-2.6593
X2.3941Y-2.5593
X4.3226Y-2.6204
X4.4226Y-2.6204
X0.9532Y-4.3558
X1.2532Y-4.3558
X2.6067Y-3.8538
X2.6567Y-3.9288
X2.7067Y-3.8538
X5.4045Y-6.4501
X5.4045Y-6.5501
X5.4045Y-6.6501
X5.5045Y-6.5501
X6.1193Y-3.622
X6.2193Y-3.622
X3.5055Y-4.1324
X3.7055Y-4.1324
X2.9262Y-5.4147
X3.2262Y-5.4147
X2.2053Y-4.0118
X2.5053Y-4.0118
X3.9498Y-5.1348
X3.9498Y-5.4348
X3.8061Y-2.2836
X4.1061Y-2.2836
X1.6672Y-2.9761
X1.9672Y-2.9761
X3.5462Y-3.6947
X3.8462Y-3.6947
X3.5293Y-4.984
X3.7293Y-4.984
X4.265Y-5.1983
X4.565Y-5.1983
X4.5663Y-5.619
X4.5663Y-5.919
X1.7721Y-5.0972
X2.0721Y-5.0972
X1.0134Y-6.6642
X1.0884Y-6.6142
X1.0884Y-6.7142
X2.6249Y-5.0585
X2.9249Y-5.0585
X2.7889Y-6.0474
X2.7889Y-6.2474
X3.9159Y-4.9385
X4.1159Y-4.9385
X2.2591Y-6.665
X2.3341Y-6.615
X2.3341Y-6.715
X2.2226Y-5.9013
X2.2226Y-6.2013
X3.5947Y-3.4561
X3.7947Y-3.4561
X4.7946Y-5.934
X5.0946Y-5.934
X4.7055Y-2.7969
X4.7055Y-3.0969
X3.4327Y-2.1832
X3.7327Y-2.1832
X4.7092Y-4.0109
X5.0092Y-4.0109
X6.072Y-6.215
X6.072Y-6.315
X6.072Y-6.415
X6.172Y-6.315
X5.8043Y-2.9076
X5.8043Y-3.2076
X4.76Y-4.1319
X4.96Y-4.1319
X5.3236Y-3.3198
X5.3236Y-3.6198
X5.0146Y-2.5595
X5.1146Y-2.4595
X5.1146Y-2.5595
X5.1146Y-2.6595
X4.2242Y-5.6533
X4.4242Y-5.6533
X2.923Y-5.7875
X2.923Y-5.8875
X2.923Y-5.9875
X2.923Y-6.0875
X3.223Y-5.7875
X3.223Y-5.8875
X3.223Y-5.9875
X3.223Y-6.0875
X2.7213Y-3.1483
X2.7213Y-3.4483
X1.7726Y-4.8538
X2.0726Y-4.8538
X4.8Y-3.5883
X5.1Y-3.5883
X3.5512Y-6.1333
X3.8512Y-6.1333
X3.4762Y-4.8263
X3.7762Y-4.8263
X3.4749Y-4.7271
X3.7749Y-4.7271
X3.3199Y-5.619
X3.3199Y-5.919
X3.8057Y-2.1832
X4.1057Y-2.1832
X6.1272Y-4.626
X6.2272Y-4.626
X3.903Y-4.1708
X4.103Y-4.1708
X0.9824Y-4.6274
X1.2824Y-4.6274
X4.1006Y-2.4305
X4.1006Y-2.7305
X4.8008Y-3.6942
X5.1008Y-3.6942
X4.798Y-2.4584
X4.798Y-2.5584
X4.798Y-2.6584
X4.898Y-2.5584
X5.4151Y-5.7883
X5.4151Y-5.8883
X5.4151Y-5.9883
X5.4151Y-6.0883
X5.7151Y-5.7883
X5.7151Y-5.8883
X5.7151Y-5.9883
X5.7151Y-6.0883
X1.6805Y-5.4139
X1.9805Y-5.4139
X2.9777Y-2.4416
X3.0527Y-2.3916
X3.0527Y-2.4916
X5.4972Y-4.2826
X5.7972Y-4.2826
X4.1699Y-3.1762
X4.4699Y-3.1762
X1.6667Y-6.4485
X1.6667Y-6.5485
X1.6667Y-6.6485
X1.7667Y-6.5485
X5.423Y-3.0759
X5.723Y-3.0759
X1.045Y-3.5888
X1.345Y-3.5888
X5.3085Y-5.2568
X5.3585Y-5.1818
X5.4085Y-5.2568
X5.3551Y-2.43
X5.3551Y-2.73
X4.1695Y-5.7875
X4.1695Y-5.8875
X4.1695Y-5.9875
X4.1695Y-6.0875
X4.4695Y-5.7875
X4.4695Y-5.8875
X4.4695Y-5.9875
X4.4695Y-6.0875
X2.9191Y-3.0769
X3.2191Y-3.0769
X6.039Y-3.4173
X6.339Y-3.4173
X1.3792Y-5.0577
X1.6792Y-5.0577
X2.2829Y-4.984
X2.4829Y-4.984
X5.4957Y-3.3954
X5.4957Y-3.4954
X5.4957Y-3.5954
X5.4957Y-3.6954
X5.4957Y-3.7954
X5.4957Y-3.8954
X5.4957Y-3.9954
X5.7957Y-3.3954
X5.7957Y-3.4954
X5.7957Y-3.5954
X5.7957Y-3.6954
X5.7957Y-3.7954
X5.7957Y-3.8954
X5.7957Y-3.9954
X1.0378Y-5.8218
X1.2378Y-5.8218
X1.7407Y-3.3958
X1.7407Y-3.4958
X1.7407Y-3.5958
X1.7407Y-3.6958
X1.7407Y-3.7958
X1.7407Y-3.8958
X1.7407Y-3.9958
X2.0407Y-3.3958
X2.0407Y-3.4958
X2.0407Y-3.5958
X2.0407Y-3.6958
X2.0407Y-3.7958
X2.0407Y-3.8958
X2.0407Y-3.9958
X3.5435Y-2.4589
X3.5435Y-2.5589
X3.5435Y-2.6589
X3.6435Y-2.5589
X1.0997Y-2.8785
X1.2997Y-2.8785
X2.9245Y-2.1826
X3.2245Y-2.1826
X5.5318Y-6.927
X5.8318Y-6.927
X5.5104Y-4.8553
X5.8104Y-4.8553
X2.7033Y-5.1348
X2.7033Y-5.4348
X6.0035Y-5.5197
X6.3035Y-5.5197
X1.7439Y-4.4811
X2.0439Y-4.4811
X2.3048Y-6.1333
X2.6048Y-6.1333
X2.2042Y-4.3562
X2.5042Y-4.3562
X5.1616Y-4.9393
X5.3616Y-4.9393
X3.76Y-2.5601
X3.86Y-2.4601
X3.86Y-2.5601
X3.86Y-2.6601
X1.4025Y-4.1708
X1.6025Y-4.1708
X1.5433Y-6.0466
X1.5433Y-6.2466
X4.7218Y-4.827
X5.0218Y-4.827
X4.3134Y-4.977
X4.5134Y-4.977
X2.3453Y-3.4565
X2.5453Y-3.4565
X3.9128Y-6.8258
X4.2128Y-6.8258
X1.0529Y-6.9265
X1.3529Y-6.9265
X3.4327Y-2.2836
X3.7327Y-2.2836
X1.4206Y-6.825
X1.7206Y-6.825
X6.0732Y-3.8465
X6.2732Y-3.8465
X2.2313Y-5.1135
X2.2313Y-5.2135
X2.2313Y-5.3135
X2.2313Y-5.4135
X2.2313Y-5.5135
X2.2313Y-5.6135
X2.2313Y-5.7135
X2.5313Y-5.1135
X2.5313Y-5.2135
X2.5313Y-5.3135
X2.5313Y-5.4135
X2.5313Y-5.5135
X2.5313Y-5.6135
X2.5313Y-5.7135
X4.7086Y-4.2543
X5.0086Y-4.2543
X1.3471Y-4.0509
X1.6471Y-4.0509
X2.3508Y-2.879
X2.5508Y-2.879
X3.0669Y-4.977
X3.2669Y-4.977
X1.8833Y-6.5497
X1.9833Y-6.4497
X1.9833Y-6.5497
X1.9833Y-6.6497
X1.6001Y-2.4305
X1.6001Y-2.7305
X0.984Y-4.8255
X1.284Y-4.8255
X5.5435Y-3.2863
X5.7435Y-3.2863
X3.0183Y-4.8545
X3.3183Y-4.8545
X4.1684Y-3.0765
X4.4684Y-3.0765
X4.8492Y-3.4556
X5.0492Y-3.4556
X1.7435Y-4.3823
X2.0435Y-4.3823
X1.794Y-6.9254
X2.094Y-6.9254
X2.2016Y-2.7979
X2.2016Y-3.0979
X2.4703Y-6.6182
X2.4703Y-6.7182
X2.5453Y-6.6682
X0.9534Y-3.911
X1.2534Y-3.911
X1.6774Y-5.7867
X1.6774Y-5.8867
X1.6774Y-5.9867
X1.6774Y-6.0867
X1.9774Y-5.7867
X1.9774Y-5.8867
X1.9774Y-5.9867
X1.9774Y-6.0867
X1.0489Y-3.0218
X1.0489Y-3.1218
X1.0489Y-3.2218
X1.0489Y-3.3218
X1.3489Y-3.0218
X1.3489Y-3.1218
X1.3489Y-3.2218
X1.3489Y-3.3218
X0.9521Y-3.1903
X0.9521Y-3.4903
X4.2653Y-4.7536
X4.5653Y-4.7536
X4.0691Y-3.6746
X4.0691Y-3.9746
X4.289Y-3.2868
X4.489Y-3.2868
X5.1955Y-5.4899
X5.1955Y-5.7899
X1.1042Y-6.4882
X1.2042Y-6.4882
X1.2246Y-6.6174
X1.2246Y-6.7174
X1.2996Y-6.6674
X1.4702Y-3.1478
X1.4702Y-3.4478
X2.228Y-4.6282
X2.528Y-4.6282
X4.7202Y-4.629
X5.0202Y-4.629
X4.5679Y-6.0119
X4.5679Y-6.3119
X5.2939Y-5.6623
X5.2939Y-5.9623
X3.5489Y-5.9332
X3.8489Y-5.9332
X5.4245Y-3.1756
X5.7245Y-3.1756
X5.4816Y-2.4407
X5.5566Y-2.3907
X5.5566Y-2.4907
X2.6694Y-4.9385
X2.8694Y-4.9385
X4.1734Y-5.5206
X4.4734Y-5.5206
X3.4541Y-4.2548
X3.7541Y-4.2548
X3.4691Y-5.9013
X3.4691Y-6.2013
X4.7512Y-6.6658
X4.8262Y-6.6158
X4.8262Y-6.7158
X4.2862Y-6.8257
X4.5862Y-6.8257
X0.977Y-5.9005
X0.977Y-6.2005
X1.668Y-3.0764
X1.968Y-3.0764
X5.1589Y-6.927
X5.4589Y-6.927
X1.794Y-6.825
X2.094Y-6.825
X4.7148Y-5.9021
X4.7148Y-6.2021
X2.3025Y-5.9332
X2.6025Y-5.9332
X4.6872Y-2.1827
X4.9872Y-2.1827
X2.9206Y-3.1766
X3.2206Y-3.1766
X2.6663Y-6.8258
X2.9663Y-6.8258
X2.2047Y-4.2553
X2.5047Y-4.2553
X4.7084Y-3.9106
X5.0084Y-3.9106
X2.9918Y-3.3963
X2.9918Y-3.4963
X2.9918Y-3.5963
X2.9918Y-3.6963
X2.9918Y-3.7963
X2.9918Y-3.8963
X2.9918Y-3.9963
X3.2918Y-3.3963
X3.2918Y-3.4963
X3.2918Y-3.5963
X3.2918Y-3.6963
X3.2918Y-3.7963
X3.2918Y-3.8963
X3.2918Y-3.9963
X4.2862Y-6.9262
X4.5862Y-6.9262
X2.2297Y-4.8263
X2.5297Y-4.8263
X3.0397Y-6.8257
X3.3397Y-6.8257
X3.7168Y-6.6182
X3.7168Y-6.7182
X3.7918Y-6.6682
X2.8163Y-5.256
X2.8663Y-5.181
X2.9163Y-5.256
X1.3057Y-2.2835
X1.6057Y-2.2835
X1.7267Y-2.4412
X1.8017Y-2.3912
X1.8017Y-2.4912
X5.5591Y-4.9778
X5.7591Y-4.9778
X3.4777Y-5.1135
X3.4777Y-5.2135
X3.4777Y-5.3135
X3.4777Y-5.4135
X3.4777Y-5.5135
X3.4777Y-5.6135
X3.4777Y-5.7135
X3.7777Y-5.1135
X3.7777Y-5.2135
X3.7777Y-5.3135
X3.7777Y-5.4135
X3.7777Y-5.5135
X3.7777Y-5.6135
X3.7777Y-5.7135
X2.9183Y-2.9765
X3.2183Y-2.9765
X3.4539Y-3.9111
X3.7539Y-3.9111
X2.5563Y-2.1836
X2.8563Y-2.1836
X2.9933Y-4.2836
X3.2933Y-4.2836
X2.995Y-4.4816
X3.295Y-4.4816
X5.1575Y-4.1703
X5.3575Y-4.1703
X5.6929Y-2.3938
X5.6929Y-2.4938
X5.7679Y-2.4438
X5.238Y-2.8615
X5.238Y-3.0615
X1.6695Y-3.1761
X1.9695Y-3.1761
X2.5982Y-4.0514
X2.8982Y-4.0514
X2.0493Y-2.9081
X2.0493Y-3.2081
X0.9323Y-2.2836
X1.2323Y-2.2836
X5.5109Y-4.7544
X5.8109Y-4.7544
X4.1589Y-6.4493
X4.1589Y-6.5493
X4.1589Y-6.6493
X4.2589Y-6.5493
X4.7071Y-3.1898
X4.7071Y-3.4898
X4.3754Y-6.5505
X4.4754Y-6.4505
X4.4754Y-6.5505
X4.4754Y-6.6505
X1.6813Y-5.5198
X1.9813Y-5.5198
X3.5494Y-3.0219
X3.5494Y-3.1219
X3.5494Y-3.2219
X3.5494Y-3.3219
X3.8494Y-3.0219
X3.8494Y-3.1219
X3.8494Y-3.2219
X3.8494Y-3.3219
X3.4546Y-4.0114
X3.7546Y-4.0114
X3.3004Y-2.9085
X3.3004Y-3.2085
X3.4536Y-4.3558
X3.7536Y-4.3558
X5.4222Y-2.9756
X5.7222Y-2.9756
X2.7033Y-5.4891
X2.7033Y-5.7891
X2.2986Y-6.9273
X2.5986Y-6.9273
X4.775Y-4.9848
X4.975Y-4.9848
X3.1289Y-6.5505
X3.2289Y-6.4505
X3.2289Y-6.5505
X3.2289Y-6.6505
X2.2045Y-3.9115
X2.5045Y-3.9115
X2.8197Y-3.6751
X2.8197Y-3.9751
X2.6718Y-6.3789
X2.6718Y-6.6789
X1.7321Y-5.6525
X1.9321Y-5.6525
X4.5498Y-2.9081
X4.5498Y-3.2081
X1.4238Y-4.9378
X1.6238Y-4.9378
X3.0402Y-4.1258
X3.2402Y-4.1258
X2.5567Y-2.284
X2.8567Y-2.284
X2.0758Y-6.0111
X2.0758Y-6.3111
X3.5963Y-6.489
X3.6963Y-6.489
X4.2411Y-3.3959
X4.2411Y-3.4959
X4.2411Y-3.5959
X4.2411Y-3.6959
X4.2411Y-3.7959
X4.2411Y-3.8959
X4.2411Y-3.9959
X4.5411Y-3.3959
X4.5411Y-3.4959
X4.5411Y-3.5959
X4.5411Y-3.6959
X4.5411Y-3.7959
X4.5411Y-3.8959
X4.5411Y-3.9959
X1.5686Y-3.6746
X1.5686Y-3.9746
X2.2032Y-3.1908
X2.2032Y-3.4908
X5.4985Y-4.3818
X5.7985Y-4.3818
X3.189Y-2.3948
X3.189Y-2.4948
X3.264Y-2.4448
X2.9946Y-4.3828
X3.2946Y-4.3828
X5.1021Y-4.0504
X5.4021Y-4.0504
X4.7234Y-5.1143
X4.7234Y-5.2143
X4.7234Y-5.3143
X4.7234Y-5.4143
X4.7234Y-5.5143
X4.7234Y-5.6143
X4.7234Y-5.7143
X5.0234Y-5.1143
X5.0234Y-5.2143
X5.0234Y-5.3143
X5.0234Y-5.4143
X5.0234Y-5.5143
X5.0234Y-5.6143
X5.0234Y-5.7143
X5.1106Y-3.8528
X5.1606Y-3.9278
X5.2106Y-3.8528
X3.5056Y-6.665
X3.5806Y-6.615
X3.5806Y-6.715
X3.5454Y-3.5888
X3.8454Y-3.5888
X1.5561Y-5.6607
X1.5561Y-5.9607
X4.1677Y-2.9761
X4.4677Y-2.9761
X1.7729Y-5.1975
X2.0729Y-5.1975
X3.3214Y-6.0119
X3.3214Y-6.3119
X5.9528Y-2.7348
X5.9528Y-3.0348
X2.0742Y-5.6182
X2.0742Y-5.9182
X5.5107Y-5.1991
X5.8107Y-5.1991
X4.7907Y-6.928
X5.0907Y-6.928
X4.7756Y-5.8233
X4.9756Y-5.8233
X5.1955Y-5.1356
X5.1955Y-5.4356
X4.7961Y-6.0337
X5.0961Y-6.0337
X1.0568Y-5.9324
X1.3568Y-5.9324
X1.7266Y-6.23
X1.9266Y-6.23
T5
X6.1402Y-2.337
X6.1402Y-2.437
X6.1402Y-2.537
X6.1402Y-2.637
X6.1402Y-2.737
X6.1402Y-2.837
X6.1402Y-2.937
X6.1402Y-3.037
X6.2402Y-2.337
X6.2402Y-2.437
X6.2402Y-2.537
X6.2402Y-2.637
X6.2402Y-2.737
X6.2402Y-2.837
X6.2402Y-2.937
X6.2402Y-3.037
T6
X6.0354Y-5.2441
X6.0354Y-5.3441
T7
X5.2903Y-5.4866
X1.5525Y-5.485
X3.9742Y-3.6236
X3.545Y-3.7948
X2.2956Y-3.7953
X3.2274Y-5.3145
X5.7196Y-5.3153
X1.9818Y-5.3138
X4.4739Y-5.3145
X4.0446Y-5.4858
X2.7249Y-3.624
X1.0445Y-3.7948
X5.2288Y-3.6231
X2.7982Y-5.4858
X4.7995Y-3.7943
X1.4738Y-3.6235
X6.2717Y-5.3701
T8
X2.9558Y-1.9847
X3.0558Y-1.9847
X3.1558Y-1.9847
X3.2558Y-1.9847
X5.1526Y-4.3893
X5.2526Y-4.3893
X5.3526Y-4.3893
X1.5987Y-7.1243
X1.6987Y-7.1243
X1.7987Y-7.1243
X1.8987Y-7.1243
X1.9987Y-7.1243
X5.4597Y-1.9838
X5.5597Y-1.9838
X5.6597Y-1.9838
X5.7597Y-1.9838
X2.6743Y-4.7196
X2.7743Y-4.7196
X2.8743Y-4.7196
X5.1665Y-4.7204
X5.2665Y-4.7204
X5.3665Y-4.7204
X2.8444Y-7.1251
X2.9444Y-7.1251
X3.0444Y-7.1251
X3.1444Y-7.1251
X3.2444Y-7.1251
X2.2786Y-1.9847
X2.3786Y-1.9847
X2.4786Y-1.9847
X2.5786Y-1.9847
X2.6786Y-1.9847
X4.7825Y-1.9838
X4.8825Y-1.9838
X4.9825Y-1.9838
X5.0825Y-1.9838
X5.1825Y-1.9838
X5.3365Y-7.1259
X5.4365Y-7.1259
X5.5365Y-7.1259
X5.6365Y-7.1259
X5.7365Y-7.1259
X4.2052Y-1.9843
X4.3052Y-1.9843
X4.4052Y-1.9843
X4.5052Y-1.9843
X3.8981Y-4.3898
X3.9981Y-4.3898
X4.0981Y-4.3898
X1.7047Y-1.9843
X1.8047Y-1.9843
X1.9047Y-1.9843
X2.0047Y-1.9843
X1.4287Y-4.7188
X1.5287Y-4.7188
X1.6287Y-4.7188
X2.6487Y-4.3902
X2.7487Y-4.3902
X2.8487Y-4.3902
X2.2672Y-7.1251
X2.3672Y-7.1251
X2.4672Y-7.1251
X2.5672Y-7.1251
X4.7594Y-7.1259
X4.8594Y-7.1259
X4.9594Y-7.1259
X5.0594Y-7.1259
X3.528Y-1.9843
X3.628Y-1.9843
X3.728Y-1.9843
X3.828Y-1.9843
X3.928Y-1.9843
X4.0909Y-7.1251
X4.1909Y-7.1251
X4.2909Y-7.1251
X4.3909Y-7.1251
X4.4909Y-7.1251
X3.9208Y-4.7196
X4.0208Y-4.7196
X4.1208Y-4.7196
X1.0276Y-1.9843
X1.1276Y-1.9843
X1.2276Y-1.9843
X1.3276Y-1.9843
X1.4276Y-1.9843
X1.3976Y-4.3898
X1.4976Y-4.3898
X1.5976Y-4.3898
X1.0216Y-7.1243
X1.1216Y-7.1243
X1.2216Y-7.1243
X1.3216Y-7.1243
X3.5137Y-7.1251
X3.6137Y-7.1251
X3.7137Y-7.1251
X3.8137Y-7.1251
T9
X0.8661Y-1.8504
X0.8661Y-4.498
X0.8661Y-7.2441
X6.2992Y-1.8504
X6.2992Y-5.0984
X6.2992Y-7.2441
T0
M30
